<svg width="347" height="113" viewBox="-5 0 347 99" fill="none" xmlns="http://www.w3.org/2000/svg">
<mask id="path-1-outside-1_2562_744" maskUnits="userSpaceOnUse" x="-7" y="-7" width="347" height="113" fill="black">
<rect fill="white" x="-7" y="-7" width="347" height="113"/>
<path d="M62.8035 17.9559C62.8035 22.1213 61.3334 25.7231 58.3932 28.7613C55.4529 31.7506 51.165 33.9068 45.5295 35.2299C48.5678 36.063 50.871 37.4351 52.4391 39.3463C54.0073 41.2084 54.7914 43.3646 54.7914 45.8148C54.7914 49.6862 53.5662 53.043 51.116 55.8852C48.7148 58.7275 45.1865 60.9326 40.5311 62.5008C35.8757 64.0199 30.2647 64.7795 23.6981 64.7795C21.2479 64.7795 19.2878 64.706 17.8176 64.559C17.7686 65.9311 17.1806 66.9602 16.0535 67.6462C14.9264 68.3323 13.4808 68.6753 11.7166 68.6753C9.95245 68.6753 8.72735 68.2833 8.04129 67.4992C7.40423 66.7151 7.13471 65.5635 7.23272 64.0444C7.67375 57.1838 8.53133 50.0047 9.80544 42.507C11.0795 34.9604 12.6967 27.6833 14.6569 20.6756C14.9999 19.4505 15.686 18.593 16.715 18.1029C17.7441 17.6129 19.0917 17.3679 20.7579 17.3679C23.7472 17.3679 25.2418 18.2009 25.2418 19.8671C25.2418 20.5531 25.0948 21.3372 24.8007 22.2193C23.5266 26.0416 22.2525 31.2361 20.9784 37.8026C19.7043 44.3202 18.7977 50.5437 18.2587 56.4733C20.6109 56.6693 22.522 56.7673 23.9922 56.7673C30.8528 56.7673 35.8757 55.7872 39.061 53.827C42.2953 51.8179 43.9124 49.2696 43.9124 46.1824C43.9124 44.0262 42.9813 42.213 41.1192 40.7429C39.306 39.2728 36.2432 38.4642 31.9309 38.3172C30.9508 38.2682 30.2647 38.0232 29.8727 37.5821C29.4806 37.1411 29.2846 36.4305 29.2846 35.4504C29.2846 34.0293 29.5787 32.8777 30.1667 31.9956C30.7548 31.1136 31.8329 30.648 33.401 30.599C36.8803 30.501 40.0166 29.9865 42.8098 29.0554C45.6521 28.1243 47.8817 26.8257 49.4989 25.1595C51.116 23.4444 51.9246 21.4597 51.9246 19.2055C51.9246 16.3633 50.528 14.1336 47.7347 12.5164C44.9415 10.8503 40.6536 10.0172 34.8711 10.0172C29.6277 10.0172 24.5557 10.7033 19.6553 12.0754C14.7549 13.3985 10.5895 15.0892 7.15921 17.1473C5.59107 18.0784 4.26796 18.544 3.18986 18.544C2.30779 18.544 1.62173 18.2499 1.13169 17.6619C0.690647 17.0248 0.470128 16.2408 0.470128 15.3097C0.470128 14.0846 0.715149 13.031 1.20519 12.1489C1.74424 11.2668 2.99385 10.2622 4.95402 9.13514C9.07038 6.78294 13.8973 4.94528 19.4348 3.62217C24.9723 2.29905 30.6322 1.63749 36.4148 1.63749C45.2845 1.63749 51.9001 3.13212 56.2615 6.12138C60.6229 9.11064 62.8035 13.0555 62.8035 17.9559ZM93.5286 48.6081C94.1657 48.6081 94.6557 48.9021 94.9988 49.4902C95.3908 50.0782 95.5868 50.8868 95.5868 51.9159C95.5868 53.876 95.1213 55.3952 94.1902 56.4733C92.377 58.6785 89.8043 60.7121 86.472 62.5743C83.1887 64.4365 79.6604 65.3675 75.8871 65.3675C70.7417 65.3675 66.7478 63.9709 63.9056 61.1777C61.0633 58.3844 59.6422 54.5621 59.6422 49.7107C59.6422 46.3294 60.3528 43.1931 61.7739 40.3019C63.195 37.3616 65.1552 35.0339 67.6544 33.3187C70.2026 31.6036 73.0694 30.746 76.2546 30.746C79.0969 30.746 81.3756 31.6036 83.0907 33.3187C84.8059 34.9849 85.6635 37.2636 85.6635 40.1548C85.6635 43.5361 84.4384 46.4519 81.9881 48.9021C79.5869 51.3033 75.4951 53.2145 69.7126 54.6356C70.9377 56.8898 73.2654 58.0169 76.6957 58.0169C78.9009 58.0169 81.4001 57.2573 84.1933 55.7382C87.0356 54.1701 89.4858 52.1364 91.544 49.6372C92.132 48.9511 92.7936 48.6081 93.5286 48.6081ZM75.005 37.9496C73.1919 37.9496 71.6482 39.0032 70.3741 41.1104C69.149 43.2176 68.5365 45.7658 68.5365 48.7551V48.9021C71.4277 48.216 73.7064 47.187 75.3726 45.8148C77.0387 44.4427 77.8718 42.8501 77.8718 41.0369C77.8718 40.1058 77.6023 39.3708 77.0632 38.8317C76.5732 38.2437 75.8871 37.9496 75.005 37.9496ZM145.393 48.6081C146.03 48.6081 146.52 48.9021 146.863 49.4902C147.255 50.0782 147.451 50.8868 147.451 51.9159C147.451 53.876 146.986 55.3952 146.055 56.4733C143.948 59.0705 141.644 61.2022 139.145 62.8683C136.646 64.5345 133.779 65.3675 130.545 65.3675C124.566 65.3675 120.401 62.8683 118.049 57.8699C116.775 59.9281 115.084 61.6922 112.977 63.1623C110.87 64.6325 108.615 65.3675 106.214 65.3675C101.559 65.3675 98.1285 63.4809 95.9233 59.7075C93.7672 55.8852 92.6891 50.7398 92.6891 44.2712C92.6891 41.87 92.8116 39.1993 93.0566 36.259H90.0428C88.5727 36.259 87.5681 35.9895 87.0291 35.4504C86.539 34.9114 86.294 34.0538 86.294 32.8777C86.294 30.1335 87.3966 28.7613 89.6018 28.7613H94.0857C95.0168 23.5669 96.3154 18.8625 97.9815 14.6481C99.6477 10.4338 101.657 7.07697 104.009 4.57775C106.361 2.07853 108.909 0.828923 111.654 0.828923C113.712 0.828923 115.329 1.7355 116.505 3.54866C117.681 5.36182 118.269 7.64051 118.269 10.3848C118.269 17.2944 115.599 23.4199 110.257 28.7613H116.946C117.877 23.5669 119.176 18.8625 120.842 14.6481C122.508 10.4338 124.517 7.07697 126.87 4.57775C129.222 2.07853 131.77 0.828923 134.514 0.828923C136.572 0.828923 138.19 1.7355 139.366 3.54866C140.542 5.36182 141.13 7.64051 141.13 10.3848C141.13 17.2944 138.459 23.4199 133.118 28.7613H139.807C140.591 28.7613 141.154 28.9329 141.497 29.2759C141.84 29.6189 142.012 30.256 142.012 31.1871C142.012 34.5684 139.243 36.259 133.706 36.259H124.811C124.664 38.6112 124.591 41.0124 124.591 43.4626C124.591 48.5591 125.179 52.1364 126.355 54.1946C127.58 56.2527 129.491 57.2818 132.088 57.2818C134.196 57.2818 136.058 56.6448 137.675 55.3707C139.292 54.0966 141.203 52.1854 143.408 49.6372C143.997 48.9511 144.658 48.6081 145.393 48.6081ZM109.669 7.88554C108.934 7.88554 108.101 8.81662 107.17 10.6788C106.288 12.4919 105.43 15.0402 104.597 18.3234C103.813 21.5577 103.151 25.1595 102.612 29.1289C105.504 26.6297 107.66 23.8364 109.081 20.7492C110.551 17.6129 111.286 14.7706 111.286 12.2224C111.286 9.33116 110.747 7.88554 109.669 7.88554ZM132.53 7.88554C131.794 7.88554 130.961 8.81662 130.03 10.6788C129.148 12.4919 128.291 15.0402 127.458 18.3234C126.674 21.5577 126.012 25.1595 125.473 29.1289C128.364 26.6297 130.52 23.8364 131.941 20.7492C133.412 17.6129 134.147 14.7706 134.147 12.2224C134.147 9.33116 133.608 7.88554 132.53 7.88554ZM107.758 57.2818C109.228 57.2818 110.698 56.5958 112.168 55.2237C113.638 53.8515 114.888 52.1609 115.917 50.1517C115.672 48.6326 115.55 46.6724 115.55 44.2712C115.55 41.87 115.672 39.1993 115.917 36.259H101.951C101.804 38.6112 101.73 41.0124 101.73 43.4626C101.73 48.4121 102.245 51.9649 103.274 54.1211C104.352 56.2282 105.847 57.2818 107.758 57.2818ZM179.137 48.7551C179.774 48.7551 180.264 49.0736 180.607 49.7107C180.999 50.2987 181.195 51.0583 181.195 51.9894C181.195 53.1165 181.023 53.9985 180.68 54.6356C180.337 55.2727 179.798 55.8362 179.063 56.3262L164.95 65.8086C163.088 75.9525 160.637 83.9156 157.599 89.6981C154.61 95.5297 150.788 98.4454 146.132 98.4454C143.633 98.4454 141.599 97.6613 140.031 96.0932C138.463 94.5741 137.679 92.5649 137.679 90.0657C137.679 87.7625 138.194 85.4103 139.223 83.0091C140.301 80.6079 142.261 77.8391 145.103 74.7028C147.994 71.6156 152.062 68.0628 157.305 64.0444L157.526 62.3538C157.869 60.5406 158.261 57.9434 158.702 54.5621C157.722 58.0904 156.35 60.7856 154.585 62.6478C152.821 64.461 150.959 65.3675 148.999 65.3675C146.794 65.3675 144.981 64.3629 143.559 62.3538C142.187 60.2956 141.501 57.7474 141.501 54.7091C141.501 51.0338 141.746 47.677 142.236 44.6387C142.726 41.5515 143.535 38.2927 144.662 34.8624C145.152 33.3923 145.838 32.3387 146.72 31.7016C147.602 31.0646 148.999 30.746 150.91 30.746C151.988 30.746 152.723 30.9175 153.115 31.2606C153.556 31.6036 153.777 32.1181 153.777 32.8042C153.777 33.1962 153.507 34.5194 152.968 36.7735C152.478 38.5867 152.086 40.2283 151.792 41.6985C151.4 43.7076 151.057 45.6433 150.763 47.5055C150.469 49.3186 150.322 50.8133 150.322 51.9894C150.322 53.8515 150.837 54.7826 151.866 54.7826C152.601 54.7826 153.507 54.0475 154.585 52.5774C155.713 51.1073 156.889 48.8776 158.114 45.8883C159.388 42.8991 160.613 39.2238 161.789 34.8624C162.181 33.3923 162.769 32.3387 163.553 31.7016C164.386 31.0646 165.611 30.746 167.229 30.746C168.356 30.746 169.14 30.893 169.581 31.1871C170.022 31.4811 170.242 31.9711 170.242 32.6572C170.242 33.8823 169.605 38.0967 168.331 45.3003L166.42 57.1348C170.193 54.2926 173.869 51.6953 177.446 49.3431C178.083 48.9511 178.647 48.7551 179.137 48.7551ZM146.941 91.3153C148.166 91.3153 149.538 89.8942 151.057 87.0519C152.576 84.2097 154.095 79.4808 155.615 72.8652C151.841 76.0505 149.097 78.9417 147.382 81.5389C145.716 84.1852 144.883 86.4884 144.883 88.4485C144.883 89.2816 145.03 89.9677 145.324 90.5067C145.667 91.0458 146.206 91.3153 146.941 91.3153Z"/>
<path d="M190.2 65.3675C188.387 65.3675 187.089 64.9755 186.305 64.1914C185.521 63.3584 185.129 61.8147 185.129 59.5605C185.129 58.0414 185.276 56.1057 185.57 53.7535C185.913 51.3523 186.452 48.069 187.187 43.9037C188.461 36.21 189.465 29.5454 190.2 23.9099C190.641 20.3816 190.862 17.4414 190.862 15.0892C190.862 12.884 190.053 11.7814 188.436 11.7814C187.162 11.7814 185.619 12.4429 183.805 13.766C182.041 15.0402 180.081 17.0983 177.925 19.9406C177.239 20.8717 176.479 21.3372 175.646 21.3372C174.96 21.3372 174.348 21.0187 173.809 20.3816C173.318 19.6956 173.073 18.936 173.073 18.1029C173.073 17.3189 173.22 16.5348 173.515 15.7507C173.858 14.9176 174.397 13.9866 175.132 12.9575C177.484 9.67419 180.106 7.15047 182.997 5.38632C185.888 3.57316 188.779 2.66658 191.671 2.66658C194.366 2.66658 196.424 3.52416 197.845 5.23931C199.315 6.95445 200.05 9.45367 200.05 12.737C200.05 14.0601 199.928 15.6282 199.683 17.4414C199.438 19.2055 199.217 20.6511 199.021 21.7782C198.825 22.9053 198.678 23.6894 198.58 24.1304C201.373 16.1428 204.51 10.5808 207.989 7.4445C211.468 4.25922 215.291 2.66658 219.456 2.66658C222.641 2.66658 225.14 3.79368 226.954 6.04788C228.816 8.30207 229.747 11.4873 229.747 15.6037C229.747 17.2208 229.526 19.23 229.085 21.6312C231.536 14.8686 234.402 10.0172 237.686 7.07696C240.969 4.13671 244.742 2.66658 249.006 2.66658C252.436 2.66658 255.058 3.76918 256.871 5.97437C258.733 8.17956 259.664 11.2668 259.664 15.2362C259.664 17.3924 259.345 20.0141 258.708 23.1014L254.225 44.1242C253.734 46.5744 253.489 48.6816 253.489 50.4457C253.489 52.5039 253.955 54.0475 254.886 55.0766C255.866 56.1057 257.214 56.6203 258.929 56.6203C260.546 56.6203 262.114 56.0812 263.633 55.0031C265.201 53.925 267.039 52.1364 269.146 49.6372C269.734 48.9511 270.396 48.6081 271.131 48.6081C271.768 48.6081 272.258 48.9021 272.601 49.4902C272.993 50.0782 273.189 50.8868 273.189 51.9159C273.189 53.827 272.724 55.3462 271.793 56.4733C269.244 59.5605 266.721 61.8147 264.221 63.2358C261.722 64.657 259.1 65.3675 256.356 65.3675C252.191 65.3675 248.932 64.1424 246.58 61.6922C244.228 59.193 243.052 55.8607 243.052 51.6953C243.052 48.8041 243.64 44.6142 244.816 39.1258L247.756 25.6741C247.854 25.233 248.025 24.449 248.271 23.3219C248.516 22.1948 248.712 21.1412 248.859 20.1611C249.006 19.132 249.079 18.1274 249.079 17.1473C249.079 15.4322 248.736 14.1581 248.05 13.325C247.413 12.4429 246.482 12.0019 245.257 12.0019C242.954 12.0019 240.528 13.4965 237.98 16.4858C235.48 19.426 233.079 24.3265 230.776 31.1871C228.522 38.0477 226.684 46.9664 225.263 57.9434C224.92 60.8836 224.307 62.8683 223.425 63.8974C222.592 64.8775 221.22 65.3675 219.309 65.3675C217.643 65.3675 216.418 64.9755 215.634 64.1914C214.899 63.4074 214.531 61.9372 214.531 59.781C214.531 57.7719 214.801 55.1501 215.34 51.9159C215.879 48.6326 216.565 44.7857 217.398 40.3754C219.652 28.5163 220.779 20.8717 220.779 17.4414C220.779 15.5792 220.412 14.2071 219.677 13.325C218.99 12.4429 217.937 12.0019 216.516 12.0019C214.115 12.0019 211.64 13.374 209.092 16.1183C206.543 18.8135 204.044 23.6404 201.594 30.599C199.193 37.5086 197.184 46.8684 195.566 58.6785C195.223 61.1777 194.709 62.9173 194.023 63.8974C193.386 64.8775 192.112 65.3675 190.2 65.3675ZM276.307 65.3675C273.269 65.3675 270.843 64.2649 269.03 62.0597C267.217 59.8546 266.311 56.9633 266.311 53.386C266.311 49.4657 267.217 45.7658 269.03 42.2865C270.843 38.7582 273.245 35.9405 276.234 33.8333C279.272 31.6771 282.482 30.599 285.863 30.599C286.941 30.599 287.652 30.8195 287.995 31.2606C288.387 31.6526 288.706 32.3877 288.951 33.4658C289.98 33.2697 291.058 33.1717 292.185 33.1717C294.586 33.1717 295.787 34.0293 295.787 35.7445C295.787 36.7735 295.419 39.2238 294.684 43.0951C293.557 48.7306 292.993 52.6509 292.993 54.8561C292.993 55.5912 293.165 56.1792 293.508 56.6203C293.9 57.0613 294.39 57.2818 294.978 57.2818C295.909 57.2818 297.036 56.6938 298.359 55.5177C299.682 54.2926 301.471 52.3324 303.725 49.6372C304.313 48.9511 304.975 48.6081 305.71 48.6081C306.347 48.6081 306.837 48.9021 307.18 49.4902C307.572 50.0782 307.768 50.8868 307.768 51.9159C307.768 53.876 307.303 55.3952 306.372 56.4733C304.362 58.9725 302.231 61.0797 299.977 62.7948C297.722 64.51 295.542 65.3675 293.434 65.3675C291.817 65.3675 290.323 64.8285 288.951 63.7504C287.627 62.6233 286.623 61.1042 285.937 59.193C283.389 63.3094 280.179 65.3675 276.307 65.3675ZM278.954 57.9434C280.032 57.9434 281.061 57.3063 282.041 56.0322C283.021 54.7581 283.732 53.0675 284.173 50.9603L286.892 37.4351C284.834 37.4841 282.923 38.2682 281.159 39.7873C279.444 41.2574 278.072 43.2176 277.043 45.6678C276.013 48.118 275.499 50.7153 275.499 53.4595C275.499 54.9786 275.793 56.1057 276.381 56.8408C277.018 57.5759 277.876 57.9434 278.954 57.9434ZM307.013 65.3675C305.151 65.3675 303.828 64.3874 303.044 62.4273C302.309 60.4671 301.941 57.3308 301.941 53.0185C301.941 46.6479 302.848 40.5959 304.661 34.8624C305.102 33.4413 305.812 32.4122 306.792 31.7751C307.822 31.0891 309.243 30.746 311.056 30.746C312.036 30.746 312.722 30.8685 313.114 31.1136C313.506 31.3586 313.702 31.8241 313.702 32.5102C313.702 33.2942 313.335 35.0584 312.599 37.8026C312.109 39.7628 311.717 41.478 311.423 42.9481C311.129 44.4182 310.884 46.2314 310.688 48.3876C312.305 44.1732 314.119 40.7429 316.128 38.0967C318.137 35.4504 320.097 33.5638 322.008 32.4367C323.968 31.3096 325.757 30.746 327.374 30.746C328.942 30.746 330.119 31.1626 330.903 31.9956C331.736 32.7797 332.152 33.9558 332.152 35.5239C332.152 36.798 331.883 39.1993 331.344 42.7276C330.854 45.7168 330.462 48.5591 330.168 51.2543C329.873 53.9005 329.726 56.8653 329.726 60.1486C329.726 62.0107 329.334 63.3584 328.55 64.1914C327.815 64.9755 326.59 65.3675 324.875 65.3675C323.258 65.3675 322.082 64.951 321.347 64.1179C320.612 63.2849 320.244 62.0352 320.244 60.3691C320.244 58.4089 320.587 55.1746 321.273 50.6663C321.861 46.7459 322.155 44.2467 322.155 43.1686C322.155 42.3845 321.886 41.9925 321.347 41.9925C320.71 41.9925 319.803 42.8256 318.627 44.4917C317.5 46.1089 316.324 48.265 315.099 50.9603C313.923 53.6555 312.967 56.4978 312.232 59.487C311.693 61.7902 311.056 63.3584 310.321 64.1914C309.635 64.9755 308.532 65.3675 307.013 65.3675Z"/>
</mask>
<path d="M62.8035 17.9559C62.8035 22.1213 61.3334 25.7231 58.3932 28.7613C55.4529 31.7506 51.165 33.9068 45.5295 35.2299C48.5678 36.063 50.871 37.4351 52.4391 39.3463C54.0073 41.2084 54.7914 43.3646 54.7914 45.8148C54.7914 49.6862 53.5662 53.043 51.116 55.8852C48.7148 58.7275 45.1865 60.9326 40.5311 62.5008C35.8757 64.0199 30.2647 64.7795 23.6981 64.7795C21.2479 64.7795 19.2878 64.706 17.8176 64.559C17.7686 65.9311 17.1806 66.9602 16.0535 67.6462C14.9264 68.3323 13.4808 68.6753 11.7166 68.6753C9.95245 68.6753 8.72735 68.2833 8.04129 67.4992C7.40423 66.7151 7.13471 65.5635 7.23272 64.0444C7.67375 57.1838 8.53133 50.0047 9.80544 42.507C11.0795 34.9604 12.6967 27.6833 14.6569 20.6756C14.9999 19.4505 15.686 18.593 16.715 18.1029C17.7441 17.6129 19.0917 17.3679 20.7579 17.3679C23.7472 17.3679 25.2418 18.2009 25.2418 19.8671C25.2418 20.5531 25.0948 21.3372 24.8007 22.2193C23.5266 26.0416 22.2525 31.2361 20.9784 37.8026C19.7043 44.3202 18.7977 50.5437 18.2587 56.4733C20.6109 56.6693 22.522 56.7673 23.9922 56.7673C30.8528 56.7673 35.8757 55.7872 39.061 53.827C42.2953 51.8179 43.9124 49.2696 43.9124 46.1824C43.9124 44.0262 42.9813 42.213 41.1192 40.7429C39.306 39.2728 36.2432 38.4642 31.9309 38.3172C30.9508 38.2682 30.2647 38.0232 29.8727 37.5821C29.4806 37.1411 29.2846 36.4305 29.2846 35.4504C29.2846 34.0293 29.5787 32.8777 30.1667 31.9956C30.7548 31.1136 31.8329 30.648 33.401 30.599C36.8803 30.501 40.0166 29.9865 42.8098 29.0554C45.6521 28.1243 47.8817 26.8257 49.4989 25.1595C51.116 23.4444 51.9246 21.4597 51.9246 19.2055C51.9246 16.3633 50.528 14.1336 47.7347 12.5164C44.9415 10.8503 40.6536 10.0172 34.8711 10.0172C29.6277 10.0172 24.5557 10.7033 19.6553 12.0754C14.7549 13.3985 10.5895 15.0892 7.15921 17.1473C5.59107 18.0784 4.26796 18.544 3.18986 18.544C2.30779 18.544 1.62173 18.2499 1.13169 17.6619C0.690647 17.0248 0.470128 16.2408 0.470128 15.3097C0.470128 14.0846 0.715149 13.031 1.20519 12.1489C1.74424 11.2668 2.99385 10.2622 4.95402 9.13514C9.07038 6.78294 13.8973 4.94528 19.4348 3.62217C24.9723 2.29905 30.6322 1.63749 36.4148 1.63749C45.2845 1.63749 51.9001 3.13212 56.2615 6.12138C60.6229 9.11064 62.8035 13.0555 62.8035 17.9559ZM93.5286 48.6081C94.1657 48.6081 94.6557 48.9021 94.9988 49.4902C95.3908 50.0782 95.5868 50.8868 95.5868 51.9159C95.5868 53.876 95.1213 55.3952 94.1902 56.4733C92.377 58.6785 89.8043 60.7121 86.472 62.5743C83.1887 64.4365 79.6604 65.3675 75.8871 65.3675C70.7417 65.3675 66.7478 63.9709 63.9056 61.1777C61.0633 58.3844 59.6422 54.5621 59.6422 49.7107C59.6422 46.3294 60.3528 43.1931 61.7739 40.3019C63.195 37.3616 65.1552 35.0339 67.6544 33.3187C70.2026 31.6036 73.0694 30.746 76.2546 30.746C79.0969 30.746 81.3756 31.6036 83.0907 33.3187C84.8059 34.9849 85.6635 37.2636 85.6635 40.1548C85.6635 43.5361 84.4384 46.4519 81.9881 48.9021C79.5869 51.3033 75.4951 53.2145 69.7126 54.6356C70.9377 56.8898 73.2654 58.0169 76.6957 58.0169C78.9009 58.0169 81.4001 57.2573 84.1933 55.7382C87.0356 54.1701 89.4858 52.1364 91.544 49.6372C92.132 48.9511 92.7936 48.6081 93.5286 48.6081ZM75.005 37.9496C73.1919 37.9496 71.6482 39.0032 70.3741 41.1104C69.149 43.2176 68.5365 45.7658 68.5365 48.7551V48.9021C71.4277 48.216 73.7064 47.187 75.3726 45.8148C77.0387 44.4427 77.8718 42.8501 77.8718 41.0369C77.8718 40.1058 77.6023 39.3708 77.0632 38.8317C76.5732 38.2437 75.8871 37.9496 75.005 37.9496ZM145.393 48.6081C146.03 48.6081 146.52 48.9021 146.863 49.4902C147.255 50.0782 147.451 50.8868 147.451 51.9159C147.451 53.876 146.986 55.3952 146.055 56.4733C143.948 59.0705 141.644 61.2022 139.145 62.8683C136.646 64.5345 133.779 65.3675 130.545 65.3675C124.566 65.3675 120.401 62.8683 118.049 57.8699C116.775 59.9281 115.084 61.6922 112.977 63.1623C110.87 64.6325 108.615 65.3675 106.214 65.3675C101.559 65.3675 98.1285 63.4809 95.9233 59.7075C93.7672 55.8852 92.6891 50.7398 92.6891 44.2712C92.6891 41.87 92.8116 39.1993 93.0566 36.259H90.0428C88.5727 36.259 87.5681 35.9895 87.0291 35.4504C86.539 34.9114 86.294 34.0538 86.294 32.8777C86.294 30.1335 87.3966 28.7613 89.6018 28.7613H94.0857C95.0168 23.5669 96.3154 18.8625 97.9815 14.6481C99.6477 10.4338 101.657 7.07697 104.009 4.57775C106.361 2.07853 108.909 0.828923 111.654 0.828923C113.712 0.828923 115.329 1.7355 116.505 3.54866C117.681 5.36182 118.269 7.64051 118.269 10.3848C118.269 17.2944 115.599 23.4199 110.257 28.7613H116.946C117.877 23.5669 119.176 18.8625 120.842 14.6481C122.508 10.4338 124.517 7.07697 126.87 4.57775C129.222 2.07853 131.77 0.828923 134.514 0.828923C136.572 0.828923 138.19 1.7355 139.366 3.54866C140.542 5.36182 141.13 7.64051 141.13 10.3848C141.13 17.2944 138.459 23.4199 133.118 28.7613H139.807C140.591 28.7613 141.154 28.9329 141.497 29.2759C141.84 29.6189 142.012 30.256 142.012 31.1871C142.012 34.5684 139.243 36.259 133.706 36.259H124.811C124.664 38.6112 124.591 41.0124 124.591 43.4626C124.591 48.5591 125.179 52.1364 126.355 54.1946C127.58 56.2527 129.491 57.2818 132.088 57.2818C134.196 57.2818 136.058 56.6448 137.675 55.3707C139.292 54.0966 141.203 52.1854 143.408 49.6372C143.997 48.9511 144.658 48.6081 145.393 48.6081ZM109.669 7.88554C108.934 7.88554 108.101 8.81662 107.17 10.6788C106.288 12.4919 105.43 15.0402 104.597 18.3234C103.813 21.5577 103.151 25.1595 102.612 29.1289C105.504 26.6297 107.66 23.8364 109.081 20.7492C110.551 17.6129 111.286 14.7706 111.286 12.2224C111.286 9.33116 110.747 7.88554 109.669 7.88554ZM132.53 7.88554C131.794 7.88554 130.961 8.81662 130.03 10.6788C129.148 12.4919 128.291 15.0402 127.458 18.3234C126.674 21.5577 126.012 25.1595 125.473 29.1289C128.364 26.6297 130.52 23.8364 131.941 20.7492C133.412 17.6129 134.147 14.7706 134.147 12.2224C134.147 9.33116 133.608 7.88554 132.53 7.88554ZM107.758 57.2818C109.228 57.2818 110.698 56.5958 112.168 55.2237C113.638 53.8515 114.888 52.1609 115.917 50.1517C115.672 48.6326 115.55 46.6724 115.55 44.2712C115.55 41.87 115.672 39.1993 115.917 36.259H101.951C101.804 38.6112 101.73 41.0124 101.73 43.4626C101.73 48.4121 102.245 51.9649 103.274 54.1211C104.352 56.2282 105.847 57.2818 107.758 57.2818ZM179.137 48.7551C179.774 48.7551 180.264 49.0736 180.607 49.7107C180.999 50.2987 181.195 51.0583 181.195 51.9894C181.195 53.1165 181.023 53.9985 180.68 54.6356C180.337 55.2727 179.798 55.8362 179.063 56.3262L164.95 65.8086C163.088 75.9525 160.637 83.9156 157.599 89.6981C154.61 95.5297 150.788 98.4454 146.132 98.4454C143.633 98.4454 141.599 97.6613 140.031 96.0932C138.463 94.5741 137.679 92.5649 137.679 90.0657C137.679 87.7625 138.194 85.4103 139.223 83.0091C140.301 80.6079 142.261 77.8391 145.103 74.7028C147.994 71.6156 152.062 68.0628 157.305 64.0444L157.526 62.3538C157.869 60.5406 158.261 57.9434 158.702 54.5621C157.722 58.0904 156.35 60.7856 154.585 62.6478C152.821 64.461 150.959 65.3675 148.999 65.3675C146.794 65.3675 144.981 64.3629 143.559 62.3538C142.187 60.2956 141.501 57.7474 141.501 54.7091C141.501 51.0338 141.746 47.677 142.236 44.6387C142.726 41.5515 143.535 38.2927 144.662 34.8624C145.152 33.3923 145.838 32.3387 146.72 31.7016C147.602 31.0646 148.999 30.746 150.91 30.746C151.988 30.746 152.723 30.9175 153.115 31.2606C153.556 31.6036 153.777 32.1181 153.777 32.8042C153.777 33.1962 153.507 34.5194 152.968 36.7735C152.478 38.5867 152.086 40.2283 151.792 41.6985C151.4 43.7076 151.057 45.6433 150.763 47.5055C150.469 49.3186 150.322 50.8133 150.322 51.9894C150.322 53.8515 150.837 54.7826 151.866 54.7826C152.601 54.7826 153.507 54.0475 154.585 52.5774C155.713 51.1073 156.889 48.8776 158.114 45.8883C159.388 42.8991 160.613 39.2238 161.789 34.8624C162.181 33.3923 162.769 32.3387 163.553 31.7016C164.386 31.0646 165.611 30.746 167.229 30.746C168.356 30.746 169.14 30.893 169.581 31.1871C170.022 31.4811 170.242 31.9711 170.242 32.6572C170.242 33.8823 169.605 38.0967 168.331 45.3003L166.42 57.1348C170.193 54.2926 173.869 51.6953 177.446 49.3431C178.083 48.9511 178.647 48.7551 179.137 48.7551ZM146.941 91.3153C148.166 91.3153 149.538 89.8942 151.057 87.0519C152.576 84.2097 154.095 79.4808 155.615 72.8652C151.841 76.0505 149.097 78.9417 147.382 81.5389C145.716 84.1852 144.883 86.4884 144.883 88.4485C144.883 89.2816 145.03 89.9677 145.324 90.5067C145.667 91.0458 146.206 91.3153 146.941 91.3153Z" fill="white"/>
<path d="M190.2 65.3675C188.387 65.3675 187.089 64.9755 186.305 64.1914C185.521 63.3584 185.129 61.8147 185.129 59.5605C185.129 58.0414 185.276 56.1057 185.57 53.7535C185.913 51.3523 186.452 48.069 187.187 43.9037C188.461 36.21 189.465 29.5454 190.2 23.9099C190.641 20.3816 190.862 17.4414 190.862 15.0892C190.862 12.884 190.053 11.7814 188.436 11.7814C187.162 11.7814 185.619 12.4429 183.805 13.766C182.041 15.0402 180.081 17.0983 177.925 19.9406C177.239 20.8717 176.479 21.3372 175.646 21.3372C174.96 21.3372 174.348 21.0187 173.809 20.3816C173.318 19.6956 173.073 18.936 173.073 18.1029C173.073 17.3189 173.22 16.5348 173.515 15.7507C173.858 14.9176 174.397 13.9866 175.132 12.9575C177.484 9.67419 180.106 7.15047 182.997 5.38632C185.888 3.57316 188.779 2.66658 191.671 2.66658C194.366 2.66658 196.424 3.52416 197.845 5.23931C199.315 6.95445 200.05 9.45367 200.05 12.737C200.05 14.0601 199.928 15.6282 199.683 17.4414C199.438 19.2055 199.217 20.6511 199.021 21.7782C198.825 22.9053 198.678 23.6894 198.58 24.1304C201.373 16.1428 204.51 10.5808 207.989 7.4445C211.468 4.25922 215.291 2.66658 219.456 2.66658C222.641 2.66658 225.14 3.79368 226.954 6.04788C228.816 8.30207 229.747 11.4873 229.747 15.6037C229.747 17.2208 229.526 19.23 229.085 21.6312C231.536 14.8686 234.402 10.0172 237.686 7.07696C240.969 4.13671 244.742 2.66658 249.006 2.66658C252.436 2.66658 255.058 3.76918 256.871 5.97437C258.733 8.17956 259.664 11.2668 259.664 15.2362C259.664 17.3924 259.345 20.0141 258.708 23.1014L254.225 44.1242C253.734 46.5744 253.489 48.6816 253.489 50.4457C253.489 52.5039 253.955 54.0475 254.886 55.0766C255.866 56.1057 257.214 56.6203 258.929 56.6203C260.546 56.6203 262.114 56.0812 263.633 55.0031C265.201 53.925 267.039 52.1364 269.146 49.6372C269.734 48.9511 270.396 48.6081 271.131 48.6081C271.768 48.6081 272.258 48.9021 272.601 49.4902C272.993 50.0782 273.189 50.8868 273.189 51.9159C273.189 53.827 272.724 55.3462 271.793 56.4733C269.244 59.5605 266.721 61.8147 264.221 63.2358C261.722 64.657 259.1 65.3675 256.356 65.3675C252.191 65.3675 248.932 64.1424 246.58 61.6922C244.228 59.193 243.052 55.8607 243.052 51.6953C243.052 48.8041 243.64 44.6142 244.816 39.1258L247.756 25.6741C247.854 25.233 248.025 24.449 248.271 23.3219C248.516 22.1948 248.712 21.1412 248.859 20.1611C249.006 19.132 249.079 18.1274 249.079 17.1473C249.079 15.4322 248.736 14.1581 248.05 13.325C247.413 12.4429 246.482 12.0019 245.257 12.0019C242.954 12.0019 240.528 13.4965 237.98 16.4858C235.48 19.426 233.079 24.3265 230.776 31.1871C228.522 38.0477 226.684 46.9664 225.263 57.9434C224.92 60.8836 224.307 62.8683 223.425 63.8974C222.592 64.8775 221.22 65.3675 219.309 65.3675C217.643 65.3675 216.418 64.9755 215.634 64.1914C214.899 63.4074 214.531 61.9372 214.531 59.781C214.531 57.7719 214.801 55.1501 215.34 51.9159C215.879 48.6326 216.565 44.7857 217.398 40.3754C219.652 28.5163 220.779 20.8717 220.779 17.4414C220.779 15.5792 220.412 14.2071 219.677 13.325C218.99 12.4429 217.937 12.0019 216.516 12.0019C214.115 12.0019 211.64 13.374 209.092 16.1183C206.543 18.8135 204.044 23.6404 201.594 30.599C199.193 37.5086 197.184 46.8684 195.566 58.6785C195.223 61.1777 194.709 62.9173 194.023 63.8974C193.386 64.8775 192.112 65.3675 190.2 65.3675ZM276.307 65.3675C273.269 65.3675 270.843 64.2649 269.03 62.0597C267.217 59.8546 266.311 56.9633 266.311 53.386C266.311 49.4657 267.217 45.7658 269.03 42.2865C270.843 38.7582 273.245 35.9405 276.234 33.8333C279.272 31.6771 282.482 30.599 285.863 30.599C286.941 30.599 287.652 30.8195 287.995 31.2606C288.387 31.6526 288.706 32.3877 288.951 33.4658C289.98 33.2697 291.058 33.1717 292.185 33.1717C294.586 33.1717 295.787 34.0293 295.787 35.7445C295.787 36.7735 295.419 39.2238 294.684 43.0951C293.557 48.7306 292.993 52.6509 292.993 54.8561C292.993 55.5912 293.165 56.1792 293.508 56.6203C293.9 57.0613 294.39 57.2818 294.978 57.2818C295.909 57.2818 297.036 56.6938 298.359 55.5177C299.682 54.2926 301.471 52.3324 303.725 49.6372C304.313 48.9511 304.975 48.6081 305.71 48.6081C306.347 48.6081 306.837 48.9021 307.18 49.4902C307.572 50.0782 307.768 50.8868 307.768 51.9159C307.768 53.876 307.303 55.3952 306.372 56.4733C304.362 58.9725 302.231 61.0797 299.977 62.7948C297.722 64.51 295.542 65.3675 293.434 65.3675C291.817 65.3675 290.323 64.8285 288.951 63.7504C287.627 62.6233 286.623 61.1042 285.937 59.193C283.389 63.3094 280.179 65.3675 276.307 65.3675ZM278.954 57.9434C280.032 57.9434 281.061 57.3063 282.041 56.0322C283.021 54.7581 283.732 53.0675 284.173 50.9603L286.892 37.4351C284.834 37.4841 282.923 38.2682 281.159 39.7873C279.444 41.2574 278.072 43.2176 277.043 45.6678C276.013 48.118 275.499 50.7153 275.499 53.4595C275.499 54.9786 275.793 56.1057 276.381 56.8408C277.018 57.5759 277.876 57.9434 278.954 57.9434ZM307.013 65.3675C305.151 65.3675 303.828 64.3874 303.044 62.4273C302.309 60.4671 301.941 57.3308 301.941 53.0185C301.941 46.6479 302.848 40.5959 304.661 34.8624C305.102 33.4413 305.812 32.4122 306.792 31.7751C307.822 31.0891 309.243 30.746 311.056 30.746C312.036 30.746 312.722 30.8685 313.114 31.1136C313.506 31.3586 313.702 31.8241 313.702 32.5102C313.702 33.2942 313.335 35.0584 312.599 37.8026C312.109 39.7628 311.717 41.478 311.423 42.9481C311.129 44.4182 310.884 46.2314 310.688 48.3876C312.305 44.1732 314.119 40.7429 316.128 38.0967C318.137 35.4504 320.097 33.5638 322.008 32.4367C323.968 31.3096 325.757 30.746 327.374 30.746C328.942 30.746 330.119 31.1626 330.903 31.9956C331.736 32.7797 332.152 33.9558 332.152 35.5239C332.152 36.798 331.883 39.1993 331.344 42.7276C330.854 45.7168 330.462 48.5591 330.168 51.2543C329.873 53.9005 329.726 56.8653 329.726 60.1486C329.726 62.0107 329.334 63.3584 328.55 64.1914C327.815 64.9755 326.59 65.3675 324.875 65.3675C323.258 65.3675 322.082 64.951 321.347 64.1179C320.612 63.2849 320.244 62.0352 320.244 60.3691C320.244 58.4089 320.587 55.1746 321.273 50.6663C321.861 46.7459 322.155 44.2467 322.155 43.1686C322.155 42.3845 321.886 41.9925 321.347 41.9925C320.71 41.9925 319.803 42.8256 318.627 44.4917C317.5 46.1089 316.324 48.265 315.099 50.9603C313.923 53.6555 312.967 56.4978 312.232 59.487C311.693 61.7902 311.056 63.3584 310.321 64.1914C309.635 64.9755 308.532 65.3675 307.013 65.3675Z" fill="#17F642"/>
<path d="M58.3932 28.7613L63.6999 33.9811L63.7211 33.9595L63.7421 33.9378L58.3932 28.7613ZM45.5295 35.2299L43.8282 27.9834L43.5612 42.4085L45.5295 35.2299ZM52.4391 39.3463L46.6847 44.0679L46.7148 44.1046L46.7455 44.141L52.4391 39.3463ZM51.116 55.8852L45.4782 51.025L45.4539 51.0531L45.43 51.0815L51.116 55.8852ZM40.5311 62.5008L42.8402 69.5772L42.8738 69.5662L42.9072 69.5549L40.5311 62.5008ZM17.8176 64.559L18.5583 57.1523L10.662 56.3627L10.3788 64.2933L17.8176 64.559ZM16.0535 67.6462L12.1832 61.2879H12.1832L16.0535 67.6462ZM8.04129 67.4992L2.2642 72.1931L2.34991 72.2986L2.43941 72.4009L8.04129 67.4992ZM7.23272 64.0444L14.6609 64.5237L14.661 64.5219L7.23272 64.0444ZM9.80544 42.507L17.1438 43.7541L17.1452 43.7462L9.80544 42.507ZM14.6569 20.6756L7.48894 18.6686L7.48842 18.6705L14.6569 20.6756ZM16.715 18.1029L13.5148 11.3824H13.5148L16.715 18.1029ZM24.8007 22.2193L17.7391 19.8654L17.7391 19.8654L24.8007 22.2193ZM20.9784 37.8026L28.2837 39.2307L28.2857 39.2205L20.9784 37.8026ZM18.2587 56.4733L10.8456 55.7993L10.1666 63.2683L17.6405 63.8911L18.2587 56.4733ZM39.061 53.827L42.9622 60.1664L42.9755 60.1582L42.9888 60.1499L39.061 53.827ZM41.1192 40.7429L36.4312 46.5247L36.4688 46.5552L36.5068 46.5852L41.1192 40.7429ZM31.9309 38.3172L31.5591 45.7515L31.6182 45.7544L31.6772 45.7565L31.9309 38.3172ZM29.8727 37.5821L24.3093 42.5274L24.3093 42.5274L29.8727 37.5821ZM30.1667 31.9956L23.9733 27.8667L23.9733 27.8667L30.1667 31.9956ZM33.401 30.599L33.1914 23.1584L33.1799 23.1587L33.1685 23.159L33.401 30.599ZM42.8098 29.0554L40.4926 21.9817L40.4742 21.9877L40.4559 21.9938L42.8098 29.0554ZM49.4989 25.1595L54.8403 30.3438L54.8778 30.3051L54.9148 30.2659L49.4989 25.1595ZM47.7347 12.5164L43.9215 18.9091L43.9632 18.934L44.0052 18.9583L47.7347 12.5164ZM19.6553 12.0754L21.5956 19.2617L21.629 19.2526L21.6623 19.2433L19.6553 12.0754ZM7.15921 17.1473L10.9595 23.5478L10.9742 23.539L10.9889 23.5302L7.15921 17.1473ZM1.13169 17.6619L-4.98838 21.8989L-4.7993 22.172L-4.58665 22.4272L1.13169 17.6619ZM1.20519 12.1489L-5.1463 8.26744L-5.22675 8.3991L-5.30168 8.53397L1.20519 12.1489ZM4.95402 9.13514L1.26096 2.67229L1.25227 2.67725L1.2436 2.68224L4.95402 9.13514ZM19.4348 3.62217L21.1646 10.862L19.4348 3.62217ZM56.2615 6.12138L60.4697 -0.0184879L60.4697 -0.0184898L56.2615 6.12138ZM55.3599 17.9559C55.3599 20.1571 54.6635 21.9116 53.0442 23.5849L63.7421 33.9378C68.0033 29.5346 70.2471 24.0854 70.2471 17.9559H55.3599ZM53.0864 23.5416C51.4402 25.2152 48.5962 26.8639 43.8282 27.9834L47.2309 42.4765C53.7339 40.9497 59.4656 38.286 63.6999 33.9811L53.0864 23.5416ZM43.5612 42.4085C45.522 42.9462 46.332 43.638 46.6847 44.0679L58.1936 34.6247C55.41 31.2322 51.6136 29.1798 47.4979 28.0513L43.5612 42.4085ZM46.7455 44.141C47.1755 44.6516 47.3478 45.1067 47.3478 45.8148H62.235C62.235 41.6225 60.8391 37.7653 58.1328 34.5516L46.7455 44.141ZM47.3478 45.8148C47.3478 47.9638 46.7238 49.5801 45.4782 51.025L56.7539 60.7454C60.4087 56.5058 62.235 51.4085 62.235 45.8148H47.3478ZM45.43 51.0815C44.1443 52.6033 41.9242 54.177 38.155 55.4466L42.9072 69.5549C48.4488 67.6883 53.2854 64.8516 56.8021 60.6889L45.43 51.0815ZM38.222 55.4244C34.5172 56.6333 29.7301 57.3359 23.6981 57.3359V72.2231C30.7993 72.2231 37.2342 71.4065 42.8402 69.5772L38.222 55.4244ZM23.6981 57.3359C21.3573 57.3359 19.6753 57.264 18.5583 57.1523L17.077 71.9656C18.9002 72.1479 21.1385 72.2231 23.6981 72.2231V57.3359ZM10.3788 64.2933C10.3905 63.9663 10.4846 63.3535 10.877 62.6668C11.2762 61.9682 11.7953 61.5241 12.1832 61.2879L19.9238 74.0045C23.2913 71.9547 25.1225 68.5767 25.2565 64.8246L10.3788 64.2933ZM12.1832 61.2879C12.3642 61.1777 12.4634 61.1618 12.4054 61.1756C12.3389 61.1913 12.1244 61.2317 11.7166 61.2317V76.1189C14.3995 76.1189 17.3004 75.6014 19.9238 74.0045L12.1832 61.2879ZM11.7166 61.2317C11.3397 61.2317 11.4069 61.1842 11.7433 61.2918C12.1188 61.412 12.9072 61.7565 13.6432 62.5976L2.43941 72.4009C5.26477 75.6298 9.23265 76.1189 11.7166 76.1189V61.2317ZM13.8184 62.8053C14.3224 63.4257 14.5306 64.0158 14.6091 64.3512C14.6809 64.6581 14.6462 64.7511 14.6609 64.5237L-0.19544 63.5652C-0.354487 66.0304 -0.0321469 69.3668 2.2642 72.1931L13.8184 62.8053ZM14.661 64.5219C15.0838 57.9447 15.9085 51.0234 17.1438 43.7541L2.46704 41.26C1.15413 48.986 0.263701 56.423 -0.19555 63.5669L14.661 64.5219ZM17.1452 43.7462C18.3779 36.4445 19.9392 29.4237 21.8253 22.6808L7.48842 18.6705C5.4542 25.9428 3.78117 33.4763 2.46571 41.2679L17.1452 43.7462ZM21.8248 22.6827C21.7689 22.8821 21.614 23.2976 21.2411 23.7636C20.8543 24.2472 20.3772 24.6035 19.9153 24.8235L13.5148 11.3824C10.3056 12.9106 8.33635 15.6422 7.48894 18.6686L21.8248 22.6827ZM19.9153 24.8235C19.7312 24.9111 19.6765 24.9029 19.8291 24.8752C19.9815 24.8475 20.2794 24.8115 20.7579 24.8115V9.92426C18.4557 9.92426 15.8961 10.2484 13.5148 11.3824L19.9153 24.8235ZM20.7579 24.8115C21.1809 24.8115 21.3611 24.8426 21.3599 24.8424C21.3524 24.841 21.2694 24.8254 21.1294 24.7786C20.9897 24.7319 20.7679 24.6456 20.4968 24.4945C19.9311 24.1792 19.1658 23.5851 18.5732 22.5942C17.9745 21.5931 17.7982 20.5982 17.7982 19.8671H32.6854C32.6854 18.3029 32.3222 16.579 31.3499 14.9532C30.3836 13.3375 29.0578 12.2227 27.7448 11.4908C25.3438 10.1526 22.7001 9.92426 20.7579 9.92426V24.8115ZM17.7982 19.8671C17.7982 19.7733 17.8032 19.7031 17.8076 19.6593C17.8119 19.6156 17.8161 19.5945 17.8154 19.5979C17.8148 19.6013 17.8101 19.6253 17.7979 19.6713C17.7858 19.7173 17.767 19.7817 17.7391 19.8654L31.8624 24.5732C32.3257 23.1831 32.6854 21.5807 32.6854 19.8671H17.7982ZM17.7391 19.8654C16.3184 24.1277 14.9723 29.6786 13.6711 36.3848L28.2857 39.2205C29.5328 32.7935 30.7349 27.9555 31.8624 24.5732L17.7391 19.8654ZM13.6731 36.3745C12.3557 43.1135 11.4101 49.5899 10.8456 55.7993L25.6717 57.1472C26.1853 51.4976 27.0529 45.5269 28.2837 39.2307L13.6731 36.3745ZM17.6405 63.8911C20.0915 64.0954 22.2309 64.2109 23.9922 64.2109V49.3237C22.8132 49.3237 21.1302 49.2432 18.8768 49.0554L17.6405 63.8911ZM23.9922 64.2109C31.248 64.2109 37.9815 63.2315 42.9622 60.1664L35.1598 47.4876C33.7699 48.3429 30.4575 49.3237 23.9922 49.3237V64.2109ZM42.9888 60.1499C47.8208 57.1483 51.356 52.4675 51.356 46.1824H36.4688C36.4688 46.2966 36.455 46.3414 36.4543 46.3436C36.454 46.3447 36.4494 46.3659 36.4147 46.4205C36.342 46.535 36.0408 46.9403 35.1331 47.5041L42.9888 60.1499ZM51.356 46.1824C51.356 41.4989 49.1766 37.6203 45.7315 34.9005L36.5068 46.5852C36.6253 46.6788 36.6705 46.7316 36.6717 46.7331C36.6724 46.7338 36.6633 46.7232 36.6481 46.7007C36.6329 46.6781 36.6134 46.6463 36.5925 46.6056C36.5483 46.5196 36.5129 46.4233 36.4909 46.3294C36.4805 46.2851 36.4748 46.2484 36.4718 46.2215C36.4688 46.1948 36.4688 46.1811 36.4688 46.1824H51.356ZM45.8072 34.961C42.0474 31.9126 36.9214 31.0394 32.1845 30.8779L31.6772 45.7565C33.4626 45.8173 34.7226 46.0092 35.5622 46.2309C36.4179 46.4568 36.5803 46.6456 36.4312 46.5247L45.8072 34.961ZM32.3026 30.8829C32.3053 30.883 32.6509 30.896 33.1848 31.0867C33.7462 31.2872 34.6285 31.7283 35.4361 32.6369L24.3093 42.5274C26.6783 45.1925 29.8395 45.6655 31.5591 45.7515L32.3026 30.8829ZM35.4361 32.6369C36.1624 33.4539 36.4758 34.2625 36.6072 34.739C36.6738 34.9803 36.7026 35.1665 36.7155 35.2777C36.7221 35.335 36.7252 35.3784 36.7267 35.4062C36.7282 35.4342 36.7282 35.4493 36.7282 35.4504H21.841C21.841 37.1316 22.1251 40.0701 24.3093 42.5274L35.4361 32.6369ZM36.7282 35.4504C36.7282 35.0093 36.822 35.4318 36.3602 36.1246L23.9733 27.8667C22.3353 30.3236 21.841 33.0493 21.841 35.4504H36.7282ZM36.3602 36.1246C35.7725 37.0061 35.0002 37.5453 34.3672 37.8186C33.8106 38.059 33.4892 38.0435 33.6335 38.039L33.1685 23.159C30.4091 23.2453 26.4514 24.1494 23.9733 27.8667L36.3602 36.1246ZM33.6106 38.0397C37.6904 37.9247 41.5656 37.3164 45.1637 36.117L40.4559 21.9938C38.4676 22.6565 36.0702 23.0773 33.1914 23.1584L33.6106 38.0397ZM45.1271 36.1291C48.7949 34.9276 52.1759 33.0889 54.8403 30.3438L44.1575 19.9753C43.5876 20.5624 42.5092 21.321 40.4926 21.9817L45.1271 36.1291ZM54.9148 30.2659C57.7685 27.2393 59.3682 23.4519 59.3682 19.2055H44.481C44.481 19.4675 44.4636 19.6495 44.083 20.0531L54.9148 30.2659ZM59.3682 19.2055C59.3682 13.3014 56.182 8.8059 51.4642 6.07455L44.0052 18.9583C44.5871 19.2952 44.6445 19.4737 44.5689 19.3529C44.5343 19.2977 44.5037 19.2281 44.4862 19.1648C44.4699 19.1055 44.481 19.1092 44.481 19.2055H59.3682ZM51.5479 6.12373C47.0165 3.42075 41.0933 2.57362 34.8711 2.57362V17.4608C40.2139 17.4608 42.8665 18.2798 43.9215 18.9091L51.5479 6.12373ZM34.8711 2.57362C28.97 2.57362 23.2217 3.34693 17.6483 4.90748L21.6623 19.2433C25.8897 18.0596 30.2854 17.4608 34.8711 17.4608V2.57362ZM17.715 4.88913C12.3197 6.34586 7.48283 8.27251 3.32951 10.7645L10.9889 23.5302C13.6962 21.9058 17.19 20.4512 21.5956 19.2617L17.715 4.88913ZM3.35897 10.7469C3.12596 10.8853 2.93735 10.9853 2.79136 11.0558C2.64465 11.1267 2.55538 11.1608 2.5202 11.1732C2.48436 11.1858 2.52248 11.1695 2.62761 11.1491C2.73324 11.1287 2.92548 11.1004 3.18986 11.1004V25.9876C6.23664 25.9876 8.94384 24.7445 10.9595 23.5478L3.35897 10.7469ZM3.18986 11.1004C3.57645 11.1004 4.20983 11.1662 4.94594 11.4817C5.71066 11.8094 6.36305 12.3122 6.85002 12.8966L-4.58665 22.4272C-2.45814 24.9814 0.474619 25.9876 3.18986 25.9876V11.1004ZM7.25175 13.4249C7.83406 14.266 7.91373 15.0377 7.91373 15.3097H-6.97347C-6.97347 17.4438 -6.45277 19.7836 -4.98838 21.8989L7.25175 13.4249ZM7.91373 15.3097C7.91373 15.1912 7.92571 15.1935 7.90402 15.2867C7.88095 15.3859 7.8266 15.5577 7.71207 15.7638L-5.30168 8.53397C-6.52476 10.7355 -6.97347 13.0888 -6.97347 15.3097H7.91373ZM7.55668 16.0304C7.36022 16.3519 7.19282 16.5347 7.14456 16.5856C7.09191 16.6412 7.10153 16.6229 7.21052 16.5353C7.44088 16.3501 7.89455 16.0307 8.66444 15.588L1.2436 2.68224C-0.800596 3.85765 -3.54425 5.64592 -5.1463 8.26744L7.55668 16.0304ZM8.64707 15.598C12.0406 13.6588 16.1818 12.0526 21.1646 10.862L17.7049 -3.61764C11.6128 -2.16199 6.1001 -0.0929337 1.26096 2.67229L8.64707 15.598ZM21.1646 10.862C26.1266 9.67636 31.2057 9.08109 36.4147 9.08109V-5.80611C30.0588 -5.80611 23.8179 -5.07827 17.7049 -3.61764L21.1646 10.862ZM36.4147 9.08109C44.697 9.08109 49.5161 10.5223 52.0533 12.2612L60.4697 -0.0184898C54.2841 -4.25807 45.8721 -5.80611 36.4147 -5.80611V9.08109ZM52.0532 12.2612C54.5784 13.992 55.3599 15.7307 55.3599 17.9559H70.2471C70.2471 10.3803 66.6673 4.22931 60.4697 -0.0184879L52.0532 12.2612ZM94.9988 49.4902L88.5691 53.2408L88.6816 53.4335L88.8053 53.6191L94.9988 49.4902ZM94.1902 56.4733L88.5567 51.608L88.4978 51.6762L88.4406 51.7458L94.1902 56.4733ZM86.472 62.5743L82.8409 56.0764L82.8203 56.0879L82.7998 56.0996L86.472 62.5743ZM63.9056 61.1777L69.123 55.8687L63.9056 61.1777ZM61.7739 40.3018L68.4541 43.5854L68.465 43.5633L68.4757 43.5411L61.7739 40.3018ZM67.6544 33.3187L63.4981 27.1436L63.4702 27.1624L63.4425 27.1814L67.6544 33.3187ZM83.0907 33.3187L77.8273 38.5822L77.8655 38.6203L77.9041 38.6579L83.0907 33.3187ZM81.9881 48.9021L76.7247 43.6387L81.9881 48.9021ZM69.7126 54.6356L67.9361 47.4071L58.564 49.7104L63.1724 58.19L69.7126 54.6356ZM84.1933 55.7382L87.7497 62.2773L87.7694 62.2665L87.7892 62.2556L84.1933 55.7382ZM91.544 49.6372L85.8924 44.7929L85.8446 44.8486L85.798 44.9052L91.544 49.6372ZM70.3741 41.1104L64.0044 37.259L63.9713 37.3138L63.9391 37.3691L70.3741 41.1104ZM68.5365 48.9021H61.0929V58.3187L70.255 56.1446L68.5365 48.9021ZM75.3726 45.8148L70.6406 40.0689L75.3726 45.8148ZM77.0632 38.8317L71.3449 43.597L71.561 43.8564L71.7998 44.0952L77.0632 38.8317ZM93.5286 56.0517C92.657 56.0517 91.5852 55.836 90.5443 55.2114C89.5268 54.6009 88.9083 53.8222 88.5691 53.2408L101.428 45.7395C99.8631 43.0562 97.0276 41.1645 93.5286 41.1645V56.0517ZM88.8053 53.6191C88.4409 53.0726 88.2774 52.5868 88.2057 52.2913C88.1363 52.005 88.1432 51.859 88.1432 51.9159H103.03C103.03 50.0533 102.692 47.6114 101.192 45.3612L88.8053 53.6191ZM88.1432 51.9159C88.1432 52.3222 88.0933 52.434 88.1208 52.3444C88.136 52.2944 88.1724 52.1924 88.2454 52.0567C88.3193 51.9191 88.4217 51.7643 88.5567 51.608L99.8237 61.3385C102.297 58.4746 103.03 54.9908 103.03 51.9159H88.1432ZM88.4406 51.7458C87.379 53.0369 85.62 54.5234 82.8409 56.0764L90.1032 69.0721C93.9886 66.9008 97.3751 64.32 99.9398 61.2007L88.4406 51.7458ZM82.7998 56.0996C80.6358 57.3269 78.3727 57.9239 75.8871 57.9239V72.8111C80.9482 72.8111 85.7417 71.546 90.1443 69.049L82.7998 56.0996ZM75.8871 57.9239C72.1012 57.9239 70.2013 56.9284 69.123 55.8687L58.6881 66.4867C63.2943 71.0135 69.3821 72.8111 75.8871 72.8111V57.9239ZM69.123 55.8687C68.0047 54.7696 67.0858 53.0292 67.0858 49.7107H52.1986C52.1986 56.095 54.122 61.9993 58.6881 66.4867L69.123 55.8687ZM67.0858 49.7107C67.0858 47.4099 67.5602 45.4041 68.4541 43.5854L55.0936 37.0183C53.1453 40.9821 52.1986 45.2489 52.1986 49.7107H67.0858ZM68.4757 43.5411C69.3782 41.6739 70.5173 40.3819 71.8663 39.4561L63.4425 27.1814C59.7931 29.6859 57.0118 33.0493 55.072 37.0626L68.4757 43.5411ZM71.8107 39.4939C73.0832 38.6374 74.4921 38.1896 76.2546 38.1896V23.3024C71.6466 23.3024 67.322 24.5698 63.4981 27.1436L71.8107 39.4939ZM76.2546 38.1896C77.4884 38.1896 77.747 38.5019 77.8273 38.5822L88.3541 28.0553C85.0042 24.7053 80.7054 23.3024 76.2546 23.3024V38.1896ZM77.9041 38.6579C77.9609 38.713 78.0037 38.7663 78.0537 38.8992C78.114 39.0595 78.2199 39.4407 78.2199 40.1548H93.1071C93.1071 35.7033 91.7298 31.3334 88.2773 27.9796L77.9041 38.6579ZM78.2199 40.1548C78.2199 41.5078 77.8177 42.5457 76.7247 43.6387L87.2516 54.1655C91.059 50.3581 93.1071 45.5644 93.1071 40.1548H78.2199ZM76.7247 43.6387C75.7637 44.5997 73.2649 46.0975 67.9361 47.4071L71.4891 61.8641C77.7252 60.3315 83.4101 58.007 87.2516 54.1655L76.7247 43.6387ZM63.1724 58.19C66.1374 63.6456 71.595 65.4605 76.6957 65.4605V50.5733C76.2397 50.5733 75.9371 50.5353 75.7596 50.5006C75.5855 50.4665 75.5558 50.4404 75.6212 50.472C75.6943 50.5075 75.8263 50.5864 75.9698 50.723C76.1137 50.8599 76.2054 50.9942 76.2527 51.0812L63.1724 58.19ZM76.6957 65.4605C80.5715 65.4605 84.3161 64.1447 87.7497 62.2773L80.637 49.1991C78.4841 50.37 77.2303 50.5733 76.6957 50.5733V65.4605ZM87.7892 62.2556C91.4522 60.2347 94.6326 57.5959 97.2899 54.3691L85.798 44.9052C84.339 46.6769 82.619 48.1055 80.5975 49.2207L87.7892 62.2556ZM97.1956 54.4814C96.9966 54.7135 96.5843 55.1226 95.9076 55.4734C95.1949 55.843 94.3707 56.0517 93.5286 56.0517V41.1645C90.131 41.1645 87.5414 42.8691 85.8924 44.7929L97.1956 54.4814ZM75.005 30.5061C69.6877 30.5061 66.0855 33.8171 64.0044 37.259L76.7439 44.9619C76.9964 44.5442 77.0251 44.6549 76.6837 44.8879C76.5022 45.0118 76.2467 45.1482 75.9248 45.2492C75.601 45.3508 75.2844 45.3932 75.005 45.3932V30.5061ZM63.9391 37.3691C61.919 40.8436 61.0929 44.7475 61.0929 48.7551H75.9801C75.9801 46.7841 76.379 45.5916 76.8092 44.8517L63.9391 37.3691ZM61.0929 48.7551V48.9021H75.9801V48.7551H61.0929ZM70.255 56.1446C73.8586 55.2895 77.2952 53.8744 80.1045 51.5608L70.6406 40.0689C70.1177 40.4995 68.9968 41.1426 66.8179 41.6596L70.255 56.1446ZM80.1045 51.5608C83.1253 49.0731 85.3154 45.5046 85.3154 41.0369H70.4282C70.4282 40.9147 70.4429 40.7595 70.4851 40.5868C70.5275 40.4139 70.5879 40.2623 70.6512 40.1412C70.779 39.8969 70.8563 39.8913 70.6406 40.0689L80.1045 51.5608ZM85.3154 41.0369C85.3154 38.5968 84.5593 35.801 82.3266 33.5683L71.7998 44.0952C71.284 43.5793 70.908 42.969 70.681 42.3498C70.4639 41.7576 70.4282 41.2843 70.4282 41.0369H85.3154ZM82.7815 34.0665C80.653 31.5122 77.7203 30.5061 75.005 30.5061V45.3932C74.6184 45.3932 73.9851 45.3274 73.2489 45.0119C72.4842 44.6842 71.8318 44.1814 71.3449 43.597L82.7815 34.0665ZM146.863 49.4902L140.434 53.2408L140.546 53.4335L140.67 53.6191L146.863 49.4902ZM146.055 56.4733L140.421 51.608L140.346 51.6946L140.274 51.7835L146.055 56.4733ZM139.145 62.8683L143.274 69.0618V69.0618L139.145 62.8683ZM118.049 57.8699L124.784 54.7004L118.942 42.2857L111.72 53.9519L118.049 57.8699ZM112.977 63.1623L117.236 69.267L112.977 63.1623ZM95.9233 59.7075L89.4401 63.3647L89.4681 63.4143L89.4967 63.4633L95.9233 59.7075ZM93.0566 36.259L100.474 36.8772L101.146 28.8154H93.0566V36.259ZM87.0291 35.4504L81.5212 40.4575L81.6404 40.5886L81.7657 40.7139L87.0291 35.4504ZM94.0857 28.7613V36.2049H100.314L101.413 30.0746L94.0857 28.7613ZM97.9815 14.6481L91.0593 11.9114L97.9815 14.6481ZM116.505 3.54866L122.75 -0.502079V-0.502083L116.505 3.54866ZM110.257 28.7613L104.994 23.4979L92.2867 36.2049H110.257V28.7613ZM116.946 28.7613V36.2049H123.174L124.273 30.0746L116.946 28.7613ZM120.842 14.6481L113.92 11.9114L120.842 14.6481ZM126.87 4.57775L121.449 -0.523832V-0.52383L126.87 4.57775ZM133.118 28.7613L127.854 23.4979L115.147 36.2049H133.118V28.7613ZM141.497 29.2759L136.234 34.5393L136.234 34.5393L141.497 29.2759ZM124.811 36.259V28.8154H117.818L117.382 35.7947L124.811 36.259ZM126.355 54.1946L119.892 57.8876L119.925 57.945L119.959 58.0018L126.355 54.1946ZM137.675 55.3707L133.068 49.5238L137.675 55.3707ZM143.408 49.6372L149.037 54.5081L149.049 54.4948L149.06 54.4814L143.408 49.6372ZM107.17 10.6788L100.512 7.3499L100.494 7.38608L100.476 7.42246L107.17 10.6788ZM104.597 18.3234L97.3821 16.4928L97.3724 16.5312L97.363 16.5697L104.597 18.3234ZM102.612 29.1289L95.2365 28.1272L92.5875 47.6336L107.48 34.7602L102.612 29.1289ZM109.081 20.7492L102.341 17.5898L102.33 17.6132L102.319 17.6367L109.081 20.7492ZM130.03 10.6788L123.373 7.3499L123.354 7.38608L123.337 7.42246L130.03 10.6788ZM127.458 18.3234L120.243 16.4928L120.233 16.5312L120.224 16.5697L127.458 18.3234ZM125.473 29.1289L118.097 28.1272L115.448 47.6336L130.341 34.7602L125.473 29.1289ZM131.941 20.7492L125.202 17.5898L125.191 17.6132L125.18 17.6367L131.941 20.7492ZM112.168 55.2236L117.247 60.6653L117.247 60.6653L112.168 55.2236ZM115.917 50.1517L122.542 53.5451L123.654 51.3743L123.266 48.9664L115.917 50.1517ZM115.917 36.259L123.335 36.8772L124.007 28.8154H115.917V36.259ZM101.951 36.259V28.8154H94.958L94.5218 35.7947L101.951 36.259ZM103.274 54.1211L96.5563 57.3272L96.6005 57.42L96.6473 57.5114L103.274 54.1211ZM145.393 56.0517C144.522 56.0517 143.45 55.836 142.409 55.2114C141.391 54.6009 140.773 53.8222 140.434 53.2408L153.293 45.7395C151.728 43.0562 148.892 41.1645 145.393 41.1645V56.0517ZM140.67 53.6191C140.305 53.0726 140.142 52.5868 140.07 52.2913C140.001 52.005 140.008 51.859 140.008 51.9159H154.895C154.895 50.0533 154.557 47.6114 153.057 45.3612L140.67 53.6191ZM140.008 51.9159C140.008 52.3222 139.958 52.434 139.985 52.3444C140.001 52.2944 140.037 52.1924 140.11 52.0567C140.184 51.9191 140.286 51.7643 140.421 51.608L151.688 61.3385C154.162 58.4746 154.895 54.9908 154.895 51.9159H140.008ZM140.274 51.7835C138.586 53.8645 136.826 55.4682 135.016 56.6749L143.274 69.0618C146.462 66.9362 149.309 64.2765 151.835 61.163L140.274 51.7835ZM135.016 56.6749C133.834 57.4627 132.428 57.9239 130.545 57.9239V72.8111C135.13 72.8111 139.457 71.6063 143.274 69.0618L135.016 56.6749ZM130.545 57.9239C128.594 57.9239 127.453 57.5219 126.767 57.1103C126.118 56.7209 125.421 56.0533 124.784 54.7004L111.314 61.0393C113.029 64.6849 115.591 67.7661 119.107 69.876C122.587 71.9636 126.517 72.8111 130.545 72.8111V57.9239ZM111.72 53.9519C111.012 55.0955 110.045 56.1316 108.718 57.0576L117.236 69.267C120.123 67.2528 122.538 64.7606 124.378 61.7879L111.72 53.9519ZM108.718 57.0576C107.768 57.7206 106.983 57.9239 106.214 57.9239V72.8111C110.247 72.8111 113.972 71.5444 117.236 69.267L108.718 57.0576ZM106.214 57.9239C103.994 57.9239 103.117 57.2651 102.35 55.9517L89.4967 63.4633C93.1396 69.6967 99.1241 72.8111 106.214 72.8111V57.9239ZM102.407 56.0503C101.109 53.7502 100.133 50.0233 100.133 44.2712H85.2455C85.2455 51.4562 86.4253 58.0202 89.4401 63.3647L102.407 56.0503ZM100.133 44.2712C100.133 42.1165 100.243 39.6562 100.474 36.8772L85.6387 35.6408C85.3803 38.7423 85.2455 41.6234 85.2455 44.2712H100.133ZM93.0566 28.8154H90.0428V43.7026H93.0566V28.8154ZM90.0428 28.8154C89.7137 28.8154 89.7893 28.78 90.1156 28.8675C90.4339 28.9529 91.3622 29.2567 92.2925 30.187L81.7657 40.7139C84.5336 43.4818 88.2181 43.7026 90.0428 43.7026V28.8154ZM92.5369 30.4433C93.2157 31.19 93.5122 31.9284 93.635 32.3581C93.7518 32.767 93.7376 32.9802 93.7376 32.8777H78.8504C78.8504 34.8298 79.2139 37.9194 81.5212 40.4575L92.5369 30.4433ZM93.7376 32.8777C93.7376 32.3067 93.8844 33.257 92.9233 34.453C92.4028 35.1008 91.726 35.5958 91.0067 35.8941C90.3329 36.1736 89.8093 36.2049 89.6018 36.2049V21.3177C86.8678 21.3177 83.6322 22.2486 81.3186 25.1278C79.2549 27.696 78.8504 30.7045 78.8504 32.8777H93.7376ZM89.6018 36.2049H94.0857V21.3177H89.6018V36.2049ZM101.413 30.0746C102.27 25.2896 103.446 21.0716 104.904 17.3848L91.0593 11.9114C89.1845 16.6534 87.7633 21.8442 86.7589 27.4481L101.413 30.0746ZM104.904 17.3848C106.329 13.781 107.894 11.3112 109.429 9.67933L98.5886 -0.523832C95.4201 2.84271 92.9668 7.08652 91.0593 11.9114L104.904 17.3848ZM109.429 9.67933C110.751 8.27524 111.453 8.27252 111.654 8.27252V-6.61468C106.366 -6.61468 101.972 -4.11818 98.5886 -0.523832L109.429 9.67933ZM111.654 8.27252C111.552 8.27252 111.192 8.23843 110.77 8.00176C110.363 7.77351 110.22 7.53783 110.26 7.5994L122.75 -0.502083C120.284 -4.30387 116.382 -6.61468 111.654 -6.61468V8.27252ZM110.26 7.5994C110.468 7.91931 110.826 8.69276 110.826 10.3848H125.713C125.713 6.58828 124.895 2.80433 122.75 -0.502079L110.26 7.5994ZM110.826 10.3848C110.826 15.1264 109.082 19.4091 104.994 23.4979L115.521 34.0248C122.115 27.4306 125.713 19.4623 125.713 10.3848H110.826ZM110.257 36.2049H116.946V21.3177H110.257V36.2049ZM124.273 30.0746C125.131 25.2896 126.307 21.0716 127.764 17.3848L113.92 11.9114C112.045 16.6534 110.624 21.8442 109.619 27.4481L124.273 30.0746ZM127.764 17.3848C129.189 13.781 130.754 11.3112 132.29 9.67933L121.449 -0.52383C118.281 2.84271 115.827 7.08652 113.92 11.9114L127.764 17.3848ZM132.29 9.67933C133.611 8.27524 134.313 8.27252 134.514 8.27252V-6.61468C129.227 -6.61468 124.832 -4.11818 121.449 -0.523832L132.29 9.67933ZM134.514 8.27252C134.412 8.27252 134.053 8.23843 133.631 8.00176C133.224 7.77351 133.081 7.53783 133.121 7.5994L145.611 -0.502079C143.144 -4.30387 139.242 -6.61468 134.514 -6.61468V8.27252ZM133.121 7.5994C133.328 7.91931 133.686 8.69276 133.686 10.3848H148.573C148.573 6.58828 147.755 2.80433 145.611 -0.502079L133.121 7.5994ZM133.686 10.3848C133.686 15.1264 131.943 19.4091 127.854 23.4979L138.381 34.0248C144.975 27.4306 148.573 19.4623 148.573 10.3848H133.686ZM133.118 36.2049H139.807V21.3177H133.118V36.2049ZM139.807 36.2049C139.691 36.2049 139.259 36.1965 138.65 36.0111C138.011 35.8166 137.093 35.3982 136.234 34.5393L146.761 24.0125C144.371 21.6225 141.399 21.3177 139.807 21.3177V36.2049ZM136.234 34.5393C135.21 33.5157 134.832 32.4514 134.696 31.9461C134.558 31.4342 134.568 31.13 134.568 31.1871H149.455C149.455 29.8891 149.328 26.5799 146.761 24.0125L136.234 34.5393ZM134.568 31.1871C134.568 30.9992 134.614 30.4723 134.959 29.8394C135.312 29.1925 135.774 28.8102 136.056 28.6381C136.289 28.4962 136.292 28.559 135.855 28.648C135.427 28.735 134.734 28.8154 133.706 28.8154V43.7026C136.99 43.7026 140.702 43.2447 143.814 41.3439C147.524 39.0785 149.455 35.3382 149.455 31.1871H134.568ZM133.706 28.8154H124.811V43.7026H133.706V28.8154ZM117.382 35.7947C117.225 38.3074 117.147 40.8636 117.147 43.4626H132.034C132.034 41.1612 132.103 38.915 132.24 36.7233L117.382 35.7947ZM117.147 43.4626C117.147 48.6831 117.671 54.0011 119.892 57.8876L132.818 50.5015C132.838 50.537 132.595 50.0885 132.377 48.7605C132.169 47.4949 132.034 45.7551 132.034 43.4626H117.147ZM119.959 58.0018C122.658 62.5358 127.135 64.7254 132.088 64.7254V49.8382C131.781 49.8382 131.913 49.7821 132.236 49.9561C132.388 50.0376 132.521 50.1389 132.624 50.2405C132.724 50.339 132.76 50.4025 132.751 50.3873L119.959 58.0018ZM132.088 64.7254C135.824 64.7254 139.319 63.552 142.282 61.2175L133.068 49.5238C132.797 49.7376 132.567 49.8382 132.088 49.8382V64.7254ZM142.282 61.2175C144.428 59.5264 146.691 57.2188 149.037 54.5081L137.78 44.7662C135.715 47.152 134.156 48.6667 133.068 49.5238L142.282 61.2175ZM149.06 54.4814C148.861 54.7135 148.449 55.1226 147.772 55.4734C147.059 55.843 146.235 56.0517 145.393 56.0517V41.1645C141.995 41.1645 139.406 42.8691 137.757 44.7929L149.06 54.4814ZM109.669 0.441938C106.094 0.441938 103.832 2.62979 102.946 3.62049C101.893 4.79752 101.105 6.16409 100.512 7.3499L113.828 14.0077C114.166 13.3313 114.26 13.3013 114.04 13.5472C113.916 13.686 113.547 14.0763 112.9 14.4605C112.22 14.8639 111.11 15.3291 109.669 15.3291V0.441938ZM100.476 7.42246C99.2732 9.89548 98.2681 13.001 97.3821 16.4928L111.812 20.1541C112.592 17.0793 113.302 15.0884 113.863 13.9351L100.476 7.42246ZM97.363 16.5697C96.5082 20.0959 95.8033 23.9539 95.2365 28.1272L109.988 30.1305C110.5 26.3651 111.118 23.0195 111.831 20.0772L97.363 16.5697ZM107.48 34.7602C111.075 31.6529 113.925 28.0277 115.843 23.8616L102.319 17.6367C101.395 19.6451 99.9324 21.6064 97.7447 23.4975L107.48 34.7602ZM115.821 23.9085C117.597 20.1193 118.73 16.1811 118.73 12.2224H103.843C103.843 13.3602 103.505 15.1064 102.341 17.5898L115.821 23.9085ZM118.73 12.2224C118.73 10.5251 118.6 8.36278 117.856 6.36909C117.467 5.32432 116.74 3.86061 115.337 2.60711C113.78 1.21469 111.781 0.441938 109.669 0.441938V15.3291C108.096 15.3291 106.569 14.7371 105.416 13.7061C104.418 12.814 104.027 11.8924 103.907 11.5704C103.703 11.0224 103.843 11.0285 103.843 12.2224H118.73ZM132.53 0.441938C128.954 0.441938 126.693 2.62979 125.806 3.62049C124.753 4.79753 123.965 6.16409 123.373 7.3499L136.688 14.0077C137.026 13.3313 137.121 13.3012 136.901 13.5472C136.776 13.686 136.407 14.0763 135.76 14.4605C135.081 14.8639 133.97 15.3291 132.53 15.3291V0.441938ZM123.337 7.42246C122.134 9.89548 121.129 13.001 120.243 16.4928L134.673 20.1541C135.453 17.0793 136.163 15.0884 136.724 13.9351L123.337 7.42246ZM120.224 16.5697C119.369 20.0959 118.664 23.9539 118.097 28.1272L132.849 30.1306C133.36 26.3651 133.978 23.0195 134.692 20.0771L120.224 16.5697ZM130.341 34.7602C133.935 31.6529 136.785 28.0277 138.703 23.8616L125.18 17.6367C124.255 19.6451 122.793 21.6064 120.605 23.4975L130.341 34.7602ZM138.681 23.9085C140.458 20.1193 141.59 16.1811 141.59 12.2224H126.703C126.703 13.3602 126.366 15.1064 125.202 17.5898L138.681 23.9085ZM141.59 12.2224C141.59 10.5251 141.46 8.36278 140.717 6.36909C140.327 5.32432 139.6 3.86061 138.198 2.60711C136.64 1.21469 134.641 0.441938 132.53 0.441938V15.3291C130.957 15.3291 129.429 14.7371 128.276 13.7061C127.278 12.814 126.888 11.8924 126.768 11.5704C126.564 11.0224 126.703 11.0285 126.703 12.2224H141.59ZM107.758 64.7254C111.715 64.7254 114.912 62.8444 117.247 60.6653L107.089 49.782C106.794 50.0572 106.696 50.0776 106.815 50.022C106.88 49.9918 106.999 49.9439 107.169 49.9043C107.341 49.8642 107.541 49.8382 107.758 49.8382V64.7254ZM117.247 60.6653C119.42 58.6377 121.168 56.2282 122.542 53.5451L109.292 46.7584C108.608 48.0936 107.857 49.0654 107.089 49.782L117.247 60.6653ZM123.266 48.9664C123.109 47.9928 122.993 46.4691 122.993 44.2712H108.106C108.106 46.8757 108.235 49.2724 108.568 51.337L123.266 48.9664ZM122.993 44.2712C122.993 42.1165 123.103 39.6562 123.335 36.8772L108.499 35.6408C108.241 38.7423 108.106 41.6234 108.106 44.2712H122.993ZM115.917 28.8154H101.951V43.7026H115.917V28.8154ZM94.5218 35.7947C94.3647 38.3074 94.2868 40.8636 94.2868 43.4626H109.174C109.174 41.1612 109.243 38.915 109.38 36.7233L94.5218 35.7947ZM94.2868 43.4626C94.2868 48.5807 94.7643 53.5726 96.5563 57.3272L109.992 50.9149C109.726 50.3571 109.174 48.2434 109.174 43.4626H94.2868ZM96.6473 57.5114C98.6354 61.3972 102.336 64.7254 107.758 64.7254V49.8382C107.972 49.8382 108.266 49.8691 108.602 49.9732C108.942 50.0782 109.244 50.2331 109.492 50.4077C109.978 50.7504 110.047 51.0167 109.901 50.7307L96.6473 57.5114ZM180.607 49.7107L174.053 53.2397L174.219 53.5481L174.413 53.8396L180.607 49.7107ZM180.68 54.6356L187.234 58.1646L187.234 58.1646L180.68 54.6356ZM179.063 56.3262L174.934 50.1328L174.923 50.1402L174.912 50.1477L179.063 56.3262ZM164.95 65.8086L160.799 59.63L158.195 61.3794L157.629 64.4646L164.95 65.8086ZM157.599 89.6982L151.01 86.2359L150.992 86.2692L150.975 86.3026L157.599 89.6982ZM140.031 96.0932L145.295 90.8298L145.253 90.788L145.21 90.7469L140.031 96.0932ZM139.223 83.0091L132.432 79.9602L132.406 80.0183L132.381 80.0769L139.223 83.0091ZM145.103 74.7028L139.67 69.6147L139.628 69.6592L139.588 69.7043L145.103 74.7028ZM157.305 64.0444L161.833 69.9526L164.286 68.0723L164.686 65.0072L157.305 64.0444ZM157.526 62.3538L150.212 60.9701L150.172 61.1796L150.145 61.391L157.526 62.3538ZM158.702 54.5621L166.083 55.5248L151.53 52.5699L158.702 54.5621ZM154.585 62.6478L159.92 67.8386L159.955 67.8031L159.989 67.7671L154.585 62.6478ZM143.559 62.3538L137.366 66.4827L137.423 66.5683L137.482 66.6522L143.559 62.3538ZM142.236 44.6387L149.585 45.824L149.586 45.8148L149.588 45.8056L142.236 44.6387ZM144.662 34.8624L137.6 32.5085L137.595 32.5237L137.59 32.5388L144.662 34.8624ZM146.72 31.7016L151.078 37.736H151.078L146.72 31.7016ZM153.115 31.2606L148.214 36.8624L148.376 37.0041L148.545 37.1362L153.115 31.2606ZM152.968 36.7735L160.154 38.7157L160.182 38.6106L160.208 38.5047L152.968 36.7735ZM151.792 41.6985L144.493 40.2387L144.49 40.2558L144.486 40.2729L151.792 41.6985ZM150.763 47.5055L158.111 48.697L158.113 48.6817L158.116 48.6664L150.763 47.5055ZM154.585 52.5774L148.678 48.0485L148.63 48.1115L148.583 48.1755L154.585 52.5774ZM158.114 45.8883L151.266 42.9697L151.246 43.0175L151.226 43.0656L158.114 45.8883ZM161.789 34.8624L168.976 36.8004L168.979 36.7904L168.981 36.7803L161.789 34.8624ZM163.553 31.7016L159.032 25.7887L158.944 25.8554L158.859 25.9245L163.553 31.7016ZM169.581 31.1871L165.452 37.3805L165.452 37.3805L169.581 31.1871ZM168.331 45.3003L161.001 44.0039L160.992 44.0587L160.983 44.1136L168.331 45.3003ZM166.42 57.1348L159.072 55.9481L156.122 74.2105L170.898 63.0804L166.42 57.1348ZM177.446 49.3431L173.545 43.0037L173.45 43.0623L173.356 43.1236L177.446 49.3431ZM155.615 72.8652L162.869 74.5311L167.863 52.7844L150.813 67.1772L155.615 72.8652ZM147.382 81.5389L141.17 77.4371L141.126 77.5045L141.083 77.5729L147.382 81.5389ZM145.324 90.5067L138.789 94.0711L138.909 94.2913L139.044 94.503L145.324 90.5067ZM179.137 56.1987C178.15 56.1987 176.996 55.931 175.925 55.235C174.903 54.5704 174.334 53.7622 174.053 53.2397L187.161 46.1817C185.734 43.532 182.937 41.3115 179.137 41.3115V56.1987ZM174.413 53.8396C173.768 52.8719 173.751 52.0687 173.751 51.9894H188.638C188.638 50.0478 188.229 47.7255 186.8 45.5817L174.413 53.8396ZM173.751 51.9894C173.751 52.1905 173.735 52.2029 173.759 52.0755C173.784 51.9503 173.868 51.5861 174.126 51.1066L187.234 58.1646C188.398 56.0021 188.638 53.7252 188.638 51.9894H173.751ZM174.126 51.1066C174.476 50.458 174.877 50.1712 174.934 50.1328L183.192 62.5197C184.72 61.5012 186.199 60.0873 187.234 58.1646L174.126 51.1066ZM174.912 50.1477L160.799 59.63L169.101 71.9871L183.214 62.5048L174.912 50.1477ZM157.629 64.4646C155.833 74.2446 153.557 81.388 151.01 86.2359L164.189 93.1604C167.718 86.4432 170.342 77.6603 172.271 67.1526L157.629 64.4646ZM150.975 86.3026C148.668 90.8043 146.899 91.0018 146.132 91.0018V105.889C154.676 105.889 160.552 100.255 164.223 93.0937L150.975 86.3026ZM146.132 91.0018C145.666 91.0018 145.457 90.9301 145.41 90.9121C145.383 90.9016 145.371 90.8943 145.365 90.89C145.358 90.8855 145.335 90.8698 145.295 90.8298L134.768 101.357C137.914 104.503 141.932 105.889 146.132 105.889V91.0018ZM145.21 90.7469C145.187 90.7247 145.187 90.7204 145.196 90.733C145.204 90.7458 145.206 90.7522 145.201 90.7409C145.195 90.7243 145.123 90.5344 145.123 90.0657H130.235C130.235 94.2618 131.623 98.3112 134.852 101.439L145.21 90.7469ZM145.123 90.0657C145.123 88.8972 145.379 87.5399 146.064 85.9412L132.381 80.0769C131.008 83.2806 130.235 86.6277 130.235 90.0657H145.123ZM146.013 86.0579C146.637 84.6684 148.023 82.5656 150.619 79.7014L139.588 69.7043C136.499 73.1127 133.964 76.5473 132.432 79.9602L146.013 86.0579ZM150.536 79.791C153.039 77.1182 156.755 73.8442 161.833 69.9526L152.777 58.1362C147.369 62.2813 142.95 66.1129 139.67 69.6147L150.536 79.791ZM164.686 65.0072L164.907 63.3165L150.145 61.391L149.924 63.0817L164.686 65.0072ZM164.84 63.7375C165.222 61.7139 165.636 58.9506 166.083 55.5248L151.321 53.5993C150.885 56.9362 150.515 59.3674 150.212 60.9701L164.84 63.7375ZM151.53 52.5699C150.745 55.3962 149.829 56.8449 149.182 57.5285L159.989 67.7671C162.87 64.7263 164.699 60.7846 165.874 56.5543L151.53 52.5699ZM149.25 57.457C148.84 57.8787 148.615 57.9914 148.607 57.995C148.607 57.9952 148.65 57.9744 148.733 57.9549C148.817 57.935 148.909 57.9239 148.999 57.9239V72.8111C153.508 72.8111 157.182 70.6528 159.92 67.8386L149.25 57.457ZM148.999 57.9239C149.017 57.9239 149.099 57.9266 149.224 57.9578C149.351 57.9897 149.479 58.0402 149.593 58.1031C149.832 58.2356 149.821 58.3156 149.637 58.0554L137.482 66.6522C140.111 70.3681 144.069 72.8111 148.999 72.8111V57.9239ZM149.753 58.2248C149.365 57.6432 148.945 56.6158 148.945 54.7091H134.058C134.058 58.879 135.01 62.948 137.366 66.4827L149.753 58.2248ZM148.945 54.7091C148.945 51.357 149.169 48.4037 149.585 45.824L134.888 43.4535C134.324 46.9503 134.058 50.7105 134.058 54.7091H148.945ZM149.588 45.8056C150.007 43.1655 150.712 40.2953 151.734 37.1859L137.59 32.5388C136.358 36.29 135.446 39.9374 134.885 43.4718L149.588 45.8056ZM151.724 37.2163C151.813 36.9497 151.854 36.92 151.782 37.0314C151.702 37.1544 151.486 37.4417 151.078 37.736L142.362 25.6672C139.781 27.5313 138.382 30.1643 137.6 32.5085L151.724 37.2163ZM151.078 37.736C150.782 37.9501 150.526 38.077 150.357 38.148C150.189 38.2182 150.089 38.2411 150.084 38.2422C150.079 38.2434 150.141 38.2291 150.287 38.2151C150.431 38.2012 150.636 38.1896 150.91 38.1896V23.3024C148.482 23.3024 145.158 23.6482 142.362 25.6672L151.078 37.736ZM150.91 38.1896C151.1 38.1896 150.946 38.2092 150.579 38.1235C150.255 38.048 149.256 37.7749 148.214 36.8624L158.017 25.6587C155.412 23.3793 152.176 23.3024 150.91 23.3024V38.1896ZM148.545 37.1362C147.77 36.533 147.155 35.7338 146.77 34.8359C146.404 33.9828 146.333 33.2479 146.333 32.8042H161.22C161.22 30.4013 160.353 27.4598 157.685 25.3849L148.545 37.1362ZM146.333 32.8042C146.333 32.4771 146.358 32.2464 146.364 32.1967C146.372 32.1201 146.378 32.0877 146.373 32.1173C146.363 32.1783 146.337 32.3308 146.281 32.6048C146.171 33.1466 145.99 33.9481 145.729 35.0424L160.208 38.5047C160.485 37.3448 160.709 36.3576 160.869 35.5763C160.962 35.1156 161.22 33.8997 161.22 32.8042H146.333ZM145.783 34.8314C145.26 36.7662 144.826 38.5722 144.493 40.2387L159.091 43.1583C159.346 41.8845 159.697 40.4072 160.154 38.7157L145.783 34.8314ZM144.486 40.2729C144.079 42.3626 143.72 44.3868 143.411 46.3446L158.116 48.6664C158.395 46.8998 158.722 45.0527 159.098 43.124L144.486 40.2729ZM143.415 46.314C143.089 48.3285 142.878 50.2576 142.878 51.9894H157.766C157.766 51.3689 157.849 50.3088 158.111 48.697L143.415 46.314ZM142.878 51.9894C142.878 53.3622 143.026 55.5729 144.193 57.6847C144.839 58.8529 145.848 60.0787 147.346 60.9819C148.856 61.8929 150.449 62.2262 151.866 62.2262V47.339C152.768 47.339 153.911 47.556 155.035 48.2341C156.147 48.9046 156.835 49.7812 157.223 50.4839C157.875 51.6646 157.766 52.4787 157.766 51.9894H142.878ZM151.866 62.2262C154.689 62.2262 156.737 60.8632 157.785 60.0132C158.93 59.085 159.858 57.9753 160.588 56.9793L148.583 48.1755C148.235 48.6496 148.171 48.6425 148.409 48.4495C148.544 48.3397 148.877 48.0884 149.407 47.8511C149.95 47.6081 150.794 47.339 151.866 47.339V62.2262ZM160.493 57.1063C162.211 54.8652 163.682 51.9299 165.001 48.7111L151.226 43.0656C150.095 45.8253 149.214 47.3494 148.678 48.0485L160.493 57.1063ZM164.961 48.807C166.412 45.4033 167.742 41.3777 168.976 36.8004L154.602 32.9243C153.484 37.0699 152.364 40.3949 151.266 42.9697L164.961 48.807ZM168.981 36.7803C169.058 36.4944 169.097 36.4665 169.024 36.5974C168.945 36.7383 168.715 37.0982 168.247 37.4787L158.859 25.9245C156.38 27.9392 155.2 30.6827 154.597 32.9444L168.981 36.7803ZM168.075 37.6145C167.558 38.0095 167.123 38.1492 166.97 38.189C166.829 38.2256 166.887 38.1896 167.229 38.1896V23.3024C164.812 23.3024 161.698 23.7494 159.032 25.7887L168.075 37.6145ZM167.229 38.1896C167.504 38.1896 167.493 38.2104 167.29 38.1724C167.179 38.1515 166.958 38.1033 166.664 37.9977C166.374 37.8932 165.941 37.7067 165.452 37.3805L173.71 24.9936C171.278 23.3727 168.499 23.3024 167.229 23.3024V38.1896ZM165.452 37.3805C164.492 36.7406 163.744 35.8414 163.289 34.8297C162.865 33.8877 162.799 33.0865 162.799 32.6572H177.686C177.686 30.3027 176.822 27.0684 173.71 24.9936L165.452 37.3805ZM162.799 32.6572C162.799 32.5981 162.746 33.3632 162.405 35.6242C162.1 37.6419 161.634 40.4267 161.001 44.0039L175.661 46.5967C176.302 42.9703 176.792 40.0461 177.125 37.8493C177.42 35.8961 177.686 33.9414 177.686 32.6572H162.799ZM160.983 44.1136L159.072 55.9481L173.768 58.3215L175.68 46.487L160.983 44.1136ZM170.898 63.0804C174.558 60.324 178.103 57.8194 181.535 55.5627L173.356 43.1236C169.634 45.5713 165.829 48.2612 161.941 51.1892L170.898 63.0804ZM181.347 55.6825C181.317 55.7011 181.128 55.8156 180.792 55.9326C180.453 56.0505 179.883 56.1987 179.137 56.1987V41.3115C176.725 41.3115 174.784 42.2412 173.545 43.0037L181.347 55.6825ZM146.941 98.7589C150.516 98.7589 152.983 96.7251 154.244 95.4197C155.613 94.0018 156.715 92.258 157.622 90.5607L144.492 83.5432C144.206 84.0781 143.969 84.4677 143.785 84.7393C143.595 85.0188 143.507 85.1071 143.534 85.0792C143.55 85.0627 143.801 84.7995 144.314 84.5188C144.858 84.2212 145.763 83.8717 146.941 83.8717V98.7589ZM157.622 90.5607C159.636 86.793 161.328 81.2435 162.869 74.5311L148.36 71.1993C146.863 77.718 145.517 81.6263 144.492 83.5432L157.622 90.5607ZM150.813 67.1772C146.775 70.5861 143.437 74.0044 141.17 77.4371L153.593 85.6408C154.757 83.8791 156.908 81.5148 160.416 78.5531L150.813 67.1772ZM141.083 77.5729C139.074 80.7633 137.439 84.4807 137.439 88.4485H152.326C152.326 88.5168 152.314 88.317 152.507 87.7828C152.7 87.2486 153.058 86.494 153.681 85.505L141.083 77.5729ZM137.439 88.4485C137.439 90.1021 137.724 92.1181 138.789 94.0711L151.858 86.9423C152.099 87.384 152.216 87.7686 152.271 88.0282C152.326 88.2826 152.326 88.4352 152.326 88.4485H137.439ZM139.044 94.503C140.978 97.5429 144.11 98.7589 146.941 98.7589V83.8717C147.479 83.8717 148.348 83.9721 149.314 84.4554C150.325 84.9607 151.096 85.7131 151.604 86.5104L139.044 94.503ZM186.305 64.1914L180.884 69.293L180.961 69.3751L181.041 69.4548L186.305 64.1914ZM185.57 53.7535L178.201 52.7008L178.192 52.7655L178.183 52.8303L185.57 53.7535ZM187.187 43.9037L194.517 45.1973L194.524 45.1586L194.53 45.1198L187.187 43.9037ZM190.2 23.9099L197.582 24.8727L197.584 24.8529L197.587 24.8332L190.2 23.9099ZM183.805 13.766L188.164 19.8004L188.178 19.7897L188.193 19.7789L183.805 13.766ZM177.925 19.9406L171.995 15.4418L171.963 15.4832L171.932 15.525L177.925 19.9406ZM173.809 20.3816L167.751 24.7081L167.929 24.9566L168.126 25.1898L173.809 20.3816ZM173.515 15.7507L166.632 12.9166L166.586 13.0261L166.545 13.1371L173.515 15.7507ZM175.132 12.9575L169.081 8.62243L169.075 8.63097L175.132 12.9575ZM182.997 5.38632L186.874 11.7405L186.913 11.7167L186.952 11.6925L182.997 5.38632ZM197.845 5.23931L192.113 9.98846L192.153 10.0363L192.194 10.0835L197.845 5.23931ZM199.683 17.4414L207.056 18.4654L207.057 18.4518L207.059 18.4382L199.683 17.4414ZM199.021 21.7782L206.355 23.0536L206.355 23.0536L199.021 21.7782ZM198.58 24.1304L191.314 22.5157L205.607 26.5875L198.58 24.1304ZM207.989 7.4445L212.973 12.9734L212.994 12.9542L213.015 12.9348L207.989 7.4445ZM226.954 6.04787L221.154 10.7132L221.184 10.7511L221.215 10.7886L226.954 6.04787ZM229.085 21.6312L221.764 20.2865L236.084 24.1669L229.085 21.6312ZM237.686 7.07697L232.72 1.53185L237.686 7.07697ZM256.871 5.97437L251.121 10.7018L251.152 10.7395L251.184 10.7768L256.871 5.97437ZM258.708 23.1014L265.988 24.6541L265.993 24.6299L265.998 24.6056L258.708 23.1014ZM254.225 44.1242L246.945 42.5715L246.935 42.6179L246.925 42.6644L254.225 44.1242ZM254.886 55.0766L249.366 60.0707L249.43 60.1412L249.496 60.2102L254.886 55.0766ZM263.633 55.0031L259.416 48.8693L259.371 48.9007L259.325 48.9328L263.633 55.0031ZM269.146 49.6372L263.495 44.7929L263.475 44.8159L263.456 44.839L269.146 49.6372ZM272.601 49.4902L266.171 53.2408L266.284 53.4335L266.408 53.6191L272.601 49.4902ZM271.793 56.4733L266.054 51.7326L266.052 51.7349L271.793 56.4733ZM264.221 63.2358L267.901 69.7065L264.221 63.2358ZM246.58 61.6922L241.159 66.7938L241.185 66.8206L241.21 66.8471L246.58 61.6922ZM244.816 39.1257L237.544 37.5363L237.541 37.5512L237.537 37.5661L244.816 39.1257ZM247.756 25.6741L240.49 24.0594L240.487 24.072L240.484 24.0846L247.756 25.6741ZM248.859 20.1611L256.22 21.2653L256.224 21.2395L256.227 21.2138L248.859 20.1611ZM248.05 13.325L242.016 17.6832L242.154 17.8746L242.304 18.057L248.05 13.325ZM237.98 16.4858L232.315 11.6569L232.308 11.6649L237.98 16.4858ZM230.776 31.1871L223.719 28.8181L223.712 28.8408L223.704 28.8635L230.776 31.1871ZM225.263 57.9434L217.881 56.9877L217.875 57.0342L217.87 57.0808L225.263 57.9434ZM223.425 63.8974L217.774 59.0532L217.764 59.0649L217.754 59.0766L223.425 63.8974ZM215.634 64.1914L210.203 69.2824L210.285 69.37L210.37 69.4549L215.634 64.1914ZM215.34 51.9159L222.682 53.1396L222.683 53.1307L222.685 53.1218L215.34 51.9159ZM217.398 40.3754L210.085 38.9854L210.084 38.9938L217.398 40.3754ZM219.677 13.325L213.801 17.8949L213.878 17.9939L213.958 18.0903L219.677 13.325ZM209.092 16.1183L214.5 21.2321L214.523 21.2078L214.546 21.1833L209.092 16.1183ZM201.594 30.599L194.573 28.1268L194.568 28.1412L194.563 28.1556L201.594 30.599ZM195.566 58.6785L202.941 59.6906L202.941 59.6883L195.566 58.6785ZM194.023 63.8974L187.925 59.6288L187.851 59.7335L187.782 59.8407L194.023 63.8974ZM190.2 57.9239C189.794 57.9239 189.78 57.8757 190.018 57.9475C190.284 58.0279 190.919 58.2787 191.568 58.928L181.041 69.4548C183.885 72.2988 187.609 72.8111 190.2 72.8111V57.9239ZM191.725 59.0899C192.105 59.4938 192.333 59.8728 192.462 60.1321C192.588 60.3867 192.631 60.5529 192.637 60.5766C192.644 60.6024 192.625 60.5365 192.606 60.3536C192.588 60.1733 192.572 59.913 192.572 59.5605H177.685C177.685 62.1159 178.013 66.2427 180.884 69.293L191.725 59.0899ZM192.572 59.5605C192.572 58.4707 192.681 56.8719 192.956 54.6768L178.183 52.8303C177.87 55.3396 177.685 57.6121 177.685 59.5605H192.572ZM192.938 54.8062C193.264 52.5232 193.787 49.3318 194.517 45.1973L179.856 42.6101C179.116 46.8062 178.561 50.1814 178.201 52.7008L192.938 54.8062ZM194.53 45.1198C195.814 37.3704 196.832 30.6173 197.582 24.8727L182.819 22.9472C182.099 28.4735 181.108 35.0496 179.843 42.6875L194.53 45.1198ZM197.587 24.8332C198.049 21.1365 198.306 17.8633 198.306 15.0892H183.418C183.418 17.0195 183.234 19.6267 182.814 22.9867L197.587 24.8332ZM198.306 15.0892C198.306 13.2965 198.016 10.6037 196.258 8.20645C194.184 5.3787 191.125 4.33778 188.436 4.33778V19.225C188.001 19.225 187.266 19.15 186.417 18.7645C185.528 18.3601 184.785 17.7352 184.253 17.0102C183.304 15.7156 183.418 14.6767 183.418 15.0892H198.306ZM188.436 4.33778C184.779 4.33778 181.646 6.12737 179.418 7.75318L188.193 19.7789C188.481 19.5687 188.718 19.4149 188.903 19.3052C189.09 19.1949 189.206 19.1403 189.255 19.1193C189.305 19.0979 189.261 19.1215 189.132 19.152C189 19.1828 188.762 19.225 188.436 19.225V4.33778ZM179.447 7.73168C176.828 9.62362 174.35 12.3366 171.995 15.4418L183.855 24.4394C185.812 21.8601 187.255 20.4567 188.164 19.8004L179.447 7.73168ZM171.932 15.525C171.997 15.437 172.307 15.036 172.951 14.6416C173.657 14.2088 174.594 13.8936 175.646 13.8936V28.7808C179.681 28.7808 182.412 26.3988 183.917 24.3561L171.932 15.525ZM175.646 13.8936C176.507 13.8936 177.359 14.1056 178.106 14.4942C178.818 14.8644 179.262 15.3033 179.491 15.5735L168.126 25.1898C169.744 27.1021 172.3 28.7808 175.646 28.7808V13.8936ZM179.866 16.0551C180.041 16.3003 180.216 16.6226 180.341 17.0122C180.467 17.4027 180.517 17.7779 180.517 18.1029H165.63C165.63 20.5073 166.371 22.7759 167.751 24.7081L179.866 16.0551ZM180.517 18.1029C180.517 18.1791 180.51 18.2462 180.5 18.2986C180.49 18.3501 180.481 18.3731 180.484 18.3643L166.545 13.1371C165.959 14.6997 165.63 16.3671 165.63 18.1029H180.517ZM180.397 18.5849C180.456 18.4431 180.663 18.0196 181.189 17.284L169.075 8.63097C168.13 9.95356 167.259 11.3922 166.632 12.9166L180.397 18.5849ZM181.183 17.2925C183.063 14.6679 184.983 12.8942 186.874 11.7405L179.12 -0.967831C175.228 1.4067 171.905 4.68048 169.081 8.62244L181.183 17.2925ZM186.952 11.6925C188.874 10.4866 190.414 10.1102 191.671 10.1102V-4.77702C187.145 -4.77702 182.902 -3.34031 179.042 -0.91983L186.952 11.6925ZM191.671 10.1102C192.236 10.1102 192.419 10.2001 192.373 10.1808C192.35 10.1711 192.297 10.1453 192.234 10.0988C192.171 10.0523 192.131 10.0092 192.113 9.98846L203.577 0.490158C200.444 -3.2907 196.07 -4.77702 191.671 -4.77702V10.1102ZM192.194 10.0835C192.081 9.95214 192.607 10.4421 192.607 12.737H207.494C207.494 8.46521 206.55 3.95677 203.497 0.395075L192.194 10.0835ZM192.607 12.737C192.607 13.6278 192.522 14.8467 192.306 16.4445L207.059 18.4382C207.333 16.4097 207.494 14.4923 207.494 12.737H192.607ZM192.31 16.4174C192.071 18.1381 191.864 19.4918 191.688 20.5029L206.355 23.0536C206.571 21.8105 206.805 20.273 207.056 18.4654L192.31 16.4174ZM191.688 20.5028C191.491 21.6363 191.37 22.2638 191.314 22.5157L205.847 25.7452C205.987 25.1151 206.16 24.1744 206.355 23.0536L191.688 20.5028ZM205.607 26.5875C208.271 18.9684 210.899 14.8427 212.973 12.9734L203.005 1.91559C198.12 6.31884 194.476 13.3171 191.554 21.6734L205.607 26.5875ZM213.015 12.9348C215.318 10.827 217.4 10.1102 219.456 10.1102V-4.77702C213.181 -4.77702 207.619 -2.30859 202.963 1.95421L213.015 12.9348ZM219.456 10.1102C220.647 10.1102 220.908 10.4084 221.154 10.7132L232.754 1.38253C229.373 -2.82104 224.636 -4.77702 219.456 -4.77702V10.1102ZM221.215 10.7886C221.601 11.2562 222.303 12.5222 222.303 15.6037H237.19C237.19 10.4525 236.03 5.34798 232.692 1.30719L221.215 10.7886ZM222.303 15.6037C222.303 16.6042 222.16 18.1292 221.764 20.2865L236.406 22.9759C236.892 20.3308 237.19 17.8374 237.19 15.6037H222.303ZM236.084 24.1669C238.351 17.9102 240.688 14.3801 242.651 12.6221L232.72 1.53185C228.116 5.6543 224.72 11.8271 222.087 19.0956L236.084 24.1669ZM242.651 12.6221C244.62 10.8589 246.642 10.1102 249.006 10.1102V-4.77702C242.843 -4.77702 237.318 -2.58553 232.72 1.53185L242.651 12.6221ZM249.006 10.1102C250.706 10.1102 251.009 10.5659 251.121 10.7018L262.62 1.24689C259.106 -3.02751 254.166 -4.77702 249.006 -4.77702V10.1102ZM251.184 10.7768C251.549 11.2099 252.22 12.3671 252.22 15.2362H267.108C267.108 10.1665 265.917 5.14927 262.558 1.17191L251.184 10.7768ZM252.22 15.2362C252.22 16.7138 251.996 18.8 251.418 21.5971L265.998 24.6056C266.695 21.2282 267.108 18.0709 267.108 15.2362H252.22ZM251.429 21.5487L246.945 42.5715L261.504 45.6769L265.988 24.6541L251.429 21.5487ZM246.925 42.6644C246.376 45.414 246.046 48.0359 246.046 50.4457H260.933C260.933 49.3272 261.093 47.7348 261.524 45.584L246.925 42.6644ZM246.046 50.4457C246.046 53.4774 246.716 57.1408 249.366 60.0707L260.406 50.0826C260.79 50.5078 260.931 50.8842 260.965 50.9978C260.991 51.0847 260.933 50.9374 260.933 50.4457H246.046ZM249.496 60.2102C252.166 63.0136 255.63 64.0639 258.929 64.0639V49.1767C258.811 49.1767 258.969 49.1591 259.287 49.2804C259.633 49.4125 259.99 49.6423 260.276 49.9431L249.496 60.2102ZM258.929 64.0639C262.316 64.0639 265.361 62.9045 267.941 61.0734L259.325 48.9328C259.075 49.1103 258.933 49.1648 258.898 49.1767C258.873 49.1854 258.893 49.1767 258.929 49.1767V64.0639ZM267.85 61.137C270.222 59.5063 272.561 57.1353 274.837 54.4353L263.456 44.839C261.518 47.1375 260.181 48.3437 259.416 48.8693L267.85 61.137ZM274.798 54.4814C274.599 54.7135 274.187 55.1225 273.51 55.4734C272.797 55.843 271.973 56.0517 271.131 56.0517V41.1645C267.733 41.1645 265.144 42.8691 263.495 44.7929L274.798 54.4814ZM271.131 56.0517C270.259 56.0517 269.188 55.836 268.147 55.2114C267.129 54.6009 266.511 53.8222 266.171 53.2408L279.031 45.7395C277.465 43.0562 274.63 41.1645 271.131 41.1645V56.0517ZM266.408 53.6191C266.043 53.0726 265.88 52.5868 265.808 52.2913C265.739 52.005 265.746 51.859 265.746 51.9159H280.633C280.633 50.0533 280.295 47.6114 278.795 45.3612L266.408 53.6191ZM265.746 51.9159C265.746 52.277 265.701 52.381 265.723 52.3076C265.735 52.2679 265.764 52.1873 265.821 52.0801C265.878 51.9715 265.955 51.852 266.054 51.7326L277.531 61.214C279.864 58.3897 280.633 55.0192 280.633 51.9159H265.746ZM266.052 51.7349C263.87 54.3781 262.012 55.9295 260.542 56.7652L267.901 69.7065C271.429 67.7 274.618 64.7429 277.533 61.2116L266.052 51.7349ZM260.542 56.7652C259.109 57.5802 257.748 57.9239 256.356 57.9239V72.8111C260.453 72.8111 264.336 71.7337 267.901 69.7065L260.542 56.7652ZM256.356 57.9239C253.727 57.9239 252.591 57.2055 251.95 56.5373L241.21 66.8471C245.273 71.0793 250.655 72.8111 256.356 72.8111V57.9239ZM252 56.5906C251.214 55.7552 250.495 54.3927 250.495 51.6953H235.608C235.608 57.3288 237.241 62.6308 241.159 66.7938L252 56.5906ZM250.495 51.6953C250.495 49.6124 250.946 46.0449 252.094 40.6854L237.537 37.5661C236.334 43.1836 235.608 47.9957 235.608 51.6953H250.495ZM252.088 40.7152L255.028 27.2636L240.484 24.0846L237.544 37.5363L252.088 40.7152ZM255.022 27.2888C255.124 26.829 255.299 26.0295 255.544 24.9031L240.997 21.7406C240.752 22.8685 240.583 23.6371 240.49 24.0594L255.022 27.2888ZM255.544 24.9031C255.818 23.6429 256.045 22.4286 256.22 21.2653L241.497 19.0569C241.378 19.8537 241.213 20.7467 240.997 21.7406L255.544 24.9031ZM256.227 21.2138C256.421 19.8569 256.523 18.5001 256.523 17.1473H241.635C241.635 17.7547 241.59 18.4071 241.49 19.1085L256.227 21.2138ZM256.523 17.1473C256.523 14.6613 256.063 11.346 253.796 8.59307L242.304 18.057C241.84 17.4934 241.678 17.0049 241.634 16.8405C241.594 16.6908 241.635 16.7594 241.635 17.1473H256.523ZM254.084 8.96685C251.856 5.88162 248.525 4.5583 245.257 4.5583V19.4455C244.973 19.4455 244.389 19.3919 243.687 19.0597C242.955 18.7129 242.389 18.2001 242.016 17.6832L254.084 8.96685ZM245.257 4.5583C239.637 4.5583 235.32 8.13175 232.315 11.6569L243.644 21.3147C244.591 20.2046 245.261 19.6779 245.615 19.4601C245.931 19.2651 245.777 19.4455 245.257 19.4455V4.5583ZM232.308 11.6649C228.87 15.7092 226.107 21.7058 223.719 28.8181L237.833 33.5561C240.051 26.9471 242.09 23.1429 243.651 21.3066L232.308 11.6649ZM223.704 28.8635C221.248 36.3379 219.334 45.7635 217.881 56.9877L232.645 58.8991C234.034 48.1694 235.795 39.7574 237.848 33.5106L223.704 28.8635ZM217.87 57.0808C217.731 58.2725 217.563 59.0241 217.434 59.4419C217.372 59.641 217.341 59.6923 217.368 59.6392C217.392 59.5901 217.51 59.3605 217.774 59.0532L229.077 68.7416C231.543 65.8643 232.303 61.8393 232.656 58.806L217.87 57.0808ZM217.754 59.0766C218.29 58.4453 218.89 58.1249 219.268 57.9901C219.592 57.8743 219.662 57.9239 219.309 57.9239V72.8111C222.324 72.8111 226.274 72.0389 229.097 68.7182L217.754 59.0766ZM219.309 57.9239C219.031 57.9239 219.109 57.8879 219.409 57.984C219.745 58.0915 220.326 58.3566 220.897 58.928L210.37 69.4549C213.117 72.2015 216.649 72.8111 219.309 72.8111V57.9239ZM221.064 59.1004C221.464 59.527 221.703 59.9286 221.838 60.2041C221.971 60.4754 222.019 60.6577 222.028 60.6954C222.038 60.7357 222.023 60.6854 222.006 60.519C221.989 60.3552 221.975 60.1133 221.975 59.781H207.087C207.087 62.1946 207.377 66.2673 210.203 69.2824L221.064 59.1004ZM221.975 59.781C221.975 58.356 222.174 56.188 222.682 53.1396L207.997 50.6921C207.427 54.1123 207.087 57.1878 207.087 59.781H221.975ZM222.685 53.1218C223.212 49.9133 223.887 46.1276 224.712 41.7569L210.084 38.9938C209.243 43.4439 208.546 47.3518 207.994 50.7099L222.685 53.1218ZM224.71 41.7654C226.927 30.1047 228.223 21.7152 228.223 17.4414H213.336C213.336 20.0281 212.377 26.928 210.085 38.9854L224.71 41.7654ZM228.223 17.4414C228.223 14.8478 227.754 11.3911 225.395 8.55973L213.958 18.0903C213.492 17.5304 213.344 17.0565 213.313 16.9416C213.286 16.8398 213.336 16.9714 213.336 17.4414H228.223ZM225.552 8.75508C223.083 5.58096 219.55 4.5583 216.516 4.5583V19.4455C216.473 19.4455 216.074 19.4403 215.498 19.199C214.87 18.9364 214.262 18.4879 213.801 17.8949L225.552 8.75508ZM216.516 4.5583C211.129 4.5583 206.818 7.62738 203.637 11.0532L214.546 21.1833C215.448 20.2124 216.1 19.7452 216.468 19.5409C216.799 19.3576 216.786 19.4455 216.516 19.4455V4.5583ZM203.683 11.0044C200.01 14.8892 197.094 20.9667 194.573 28.1268L208.615 33.0712C210.994 26.3141 213.077 22.7377 214.5 21.2321L203.683 11.0044ZM194.563 28.1556C191.931 35.728 189.84 45.6341 188.192 57.6686L202.941 59.6883C204.528 48.1028 206.454 39.2892 208.625 33.0424L194.563 28.1556ZM188.192 57.6663C188.053 58.676 187.904 59.3448 187.785 59.7464C187.728 59.9401 187.693 60.0199 187.696 60.0139C187.696 60.0126 187.761 59.8622 187.925 59.6288L200.121 68.166C201.898 65.6267 202.578 62.3379 202.941 59.6906L188.192 57.6663ZM187.782 59.8407C188.456 58.804 189.344 58.2732 189.917 58.0526C190.4 57.8669 190.581 57.9239 190.2 57.9239V72.8111C192.991 72.8111 197.551 72.127 200.264 67.9541L187.782 59.8407ZM269.03 62.0597L274.78 57.3323L269.03 62.0597ZM269.03 42.2865L275.631 45.7265L275.641 45.7077L275.651 45.6888L269.03 42.2865ZM276.234 33.8333L280.523 39.9172L280.532 39.9104L280.542 39.9036L276.234 33.8333ZM287.995 31.2606L282.119 35.8305L282.404 36.1963L282.732 36.524L287.995 31.2606ZM288.951 33.4658L281.692 35.1154L283.285 42.1224L290.343 40.7779L288.951 33.4658ZM294.684 43.0951L301.983 44.5549L301.99 44.5193L301.997 44.4836L294.684 43.0951ZM293.508 56.6203L287.632 61.1902L287.782 61.383L287.945 61.5655L293.508 56.6203ZM298.359 55.5177L303.305 61.0811L303.361 61.0309L303.417 60.9795L298.359 55.5177ZM303.725 49.6372L298.074 44.7929L298.044 44.8271L298.016 44.8617L303.725 49.6372ZM307.18 49.4902L300.75 53.2408L300.863 53.4335L300.987 53.6191L307.18 49.4902ZM306.372 56.4733L300.738 51.608L300.652 51.7072L300.57 51.8094L306.372 56.4733ZM299.977 62.7948L304.484 68.7186L299.977 62.7948ZM288.951 63.7504L284.124 69.4168L284.236 69.5124L284.352 69.6034L288.951 63.7504ZM285.937 59.193L292.943 56.6781L287.729 42.1554L279.608 55.275L285.937 59.193ZM282.041 56.0322L276.141 51.4938V51.4938L282.041 56.0322ZM284.173 50.9603L291.458 52.4852L291.464 52.4565L291.47 52.4277L284.173 50.9603ZM286.892 37.4351L294.19 38.9025L296.026 29.7719L286.715 29.9936L286.892 37.4351ZM281.159 39.7873L286.003 45.4389L286.01 45.4334L286.016 45.4278L281.159 39.7873ZM277.043 45.6678L283.905 48.5502L277.043 45.6678ZM276.381 56.8408L270.568 61.4908L270.66 61.6051L270.756 61.7158L276.381 56.8408ZM276.307 57.9239C275.332 57.9239 275.078 57.6952 274.78 57.3323L263.281 66.7872C266.609 70.8347 271.207 72.8111 276.307 72.8111V57.9239ZM274.78 57.3323C274.316 56.7682 273.754 55.6866 273.754 53.386H258.867C258.867 58.24 260.118 62.9409 263.281 66.7872L274.78 57.3323ZM273.754 53.386C273.754 50.6644 274.371 48.1445 275.631 45.7265L262.429 38.8465C260.063 43.3872 258.867 48.2669 258.867 53.386H273.754ZM275.651 45.6888C276.962 43.1369 278.597 41.2743 280.523 39.9172L271.945 27.7493C267.892 30.6066 264.725 34.3795 262.41 38.8843L275.651 45.6888ZM280.542 39.9036C282.456 38.5454 284.183 38.0426 285.863 38.0426V23.1554C280.781 23.1554 276.089 24.8088 271.926 27.763L280.542 39.9036ZM285.863 38.0426C285.959 38.0426 285.6 38.0601 284.999 37.8735C284.375 37.6799 283.147 37.1522 282.119 35.8305L293.871 26.6906C291.241 23.31 287.277 23.1554 285.863 23.1554V38.0426ZM282.732 36.524C282.369 36.1615 282.128 35.8255 281.978 35.5886C281.828 35.3501 281.741 35.164 281.698 35.0655C281.62 34.8857 281.636 34.8695 281.692 35.1154L296.209 31.8161C295.908 30.4894 295.224 27.9629 293.258 25.9971L282.732 36.524ZM290.343 40.7779C290.88 40.6756 291.49 40.6153 292.185 40.6153V25.7281C290.625 25.7281 289.079 25.8638 287.558 26.1536L290.343 40.7779ZM292.185 40.6153C292.724 40.6153 291.792 40.7521 290.56 39.872C289.859 39.3717 289.23 38.6537 288.816 37.7667C288.421 36.919 288.343 36.1807 288.343 35.7445H303.23C303.23 32.9304 302.107 29.8251 299.213 27.7578C296.78 26.0201 294.047 25.7281 292.185 25.7281V40.6153ZM288.343 35.7445C288.343 35.6462 288.334 36.0245 288.15 37.2497C287.986 38.3414 287.73 39.8174 287.371 41.7066L301.997 44.4836C302.687 40.8514 303.23 37.6275 303.23 35.7445H288.343ZM287.385 41.6353C286.267 47.2246 285.55 51.8191 285.55 54.8561H300.437C300.437 53.4827 300.847 50.2365 301.983 44.5549L287.385 41.6353ZM285.55 54.8561C285.55 56.723 285.993 59.082 287.632 61.1902L299.384 52.0503C300.337 53.2764 300.437 54.4594 300.437 54.8561H285.55ZM287.945 61.5655C289.743 63.5894 292.255 64.7254 294.978 64.7254V49.8382C295.637 49.8382 296.421 49.9672 297.224 50.3285C298.026 50.6894 298.639 51.1889 299.071 51.675L287.945 61.5655ZM294.978 64.7254C298.785 64.7254 301.694 62.5129 303.305 61.0811L293.414 49.9543C293.045 50.2823 292.936 50.3158 293.079 50.2414C293.209 50.1735 293.888 49.8382 294.978 49.8382V64.7254ZM303.417 60.9795C305.097 59.4234 307.13 57.1687 309.435 54.4126L298.016 44.8617C295.812 47.4961 294.268 49.1617 293.302 50.0559L303.417 60.9795ZM309.377 54.4814C309.178 54.7135 308.766 55.1226 308.089 55.4734C307.376 55.843 306.552 56.0517 305.71 56.0517V41.1645C302.312 41.1645 299.723 42.8691 298.074 44.7929L309.377 54.4814ZM305.71 56.0517C304.838 56.0517 303.767 55.836 302.726 55.2114C301.708 54.6009 301.09 53.8222 300.75 53.2408L313.61 45.7395C312.044 43.0562 309.209 41.1645 305.71 41.1645V56.0517ZM300.987 53.6191C300.622 53.0726 300.459 52.5868 300.387 52.2913C300.318 52.005 300.325 51.859 300.325 51.9159H315.212C315.212 50.0533 314.874 47.6114 313.374 45.3612L300.987 53.6191ZM300.325 51.9159C300.325 52.3222 300.275 52.434 300.302 52.3444C300.317 52.2944 300.354 52.1924 300.427 52.0567C300.501 51.9191 300.603 51.7643 300.738 51.608L312.005 61.3385C314.478 58.4746 315.212 54.9908 315.212 51.9159H300.325ZM300.57 51.8094C298.891 53.8985 297.184 55.5662 295.469 56.871L304.484 68.7186C307.277 66.5931 309.834 64.0464 312.173 61.1371L300.57 51.8094ZM295.469 56.871C294.778 57.3969 294.262 57.665 293.926 57.7972C293.606 57.9229 293.457 57.9239 293.434 57.9239V72.8111C297.65 72.8111 301.376 71.0831 304.484 68.7186L295.469 56.871ZM293.434 57.9239C293.446 57.9239 293.474 57.9251 293.515 57.9321C293.556 57.9392 293.594 57.9497 293.626 57.9611C293.657 57.9724 293.669 57.9798 293.66 57.9747C293.65 57.9691 293.613 57.9471 293.549 57.8974L284.352 69.6034C286.925 71.625 290.014 72.8111 293.434 72.8111V57.9239ZM293.777 58.084C293.599 57.9316 293.264 57.5741 292.943 56.6781L278.931 61.7079C279.981 64.6342 281.656 67.315 284.124 69.4168L293.777 58.084ZM279.608 55.275C278.026 57.8307 276.937 57.9239 276.307 57.9239V72.8111C283.421 72.8111 288.751 68.788 292.266 63.111L279.608 55.275ZM278.954 65.387C283.306 65.387 286.267 62.7461 287.941 60.5707L276.141 51.4938C276.029 51.6393 276.163 51.4174 276.616 51.1366C277.13 50.8183 277.944 50.4998 278.954 50.4998V65.387ZM287.941 60.5707C289.794 58.1611 290.862 55.3343 291.458 52.4852L276.887 49.4354C276.601 50.8007 276.248 51.3551 276.141 51.4938L287.941 60.5707ZM291.47 52.4277L294.19 38.9025L279.595 35.9677L276.875 49.4928L291.47 52.4277ZM286.715 29.9936C282.711 30.0889 279.19 31.6598 276.302 34.1468L286.016 45.4278C286.656 44.8766 286.957 44.8793 287.07 44.8766L286.715 29.9936ZM276.315 34.1357C273.578 36.4814 271.578 39.4553 270.18 42.7854L283.905 48.5502C284.565 46.9799 285.309 46.0334 286.003 45.4389L276.315 34.1357ZM270.18 42.7854C268.755 46.1782 268.055 49.7584 268.055 53.4595H282.942C282.942 51.6721 283.272 50.0579 283.905 48.5502L270.18 42.7854ZM268.055 53.4595C268.055 55.7042 268.448 58.8406 270.568 61.4908L282.193 52.1908C282.688 52.8086 282.866 53.3513 282.922 53.5652C282.975 53.7683 282.942 53.7657 282.942 53.4595H268.055ZM270.756 61.7158C272.97 64.2707 275.979 65.387 278.954 65.387V50.4998C279.267 50.4998 279.803 50.5557 280.434 50.826C281.084 51.1047 281.619 51.5197 282.006 51.9658L270.756 61.7158ZM303.044 62.4273L296.074 65.0409L296.102 65.1166L296.132 65.1918L303.044 62.4273ZM304.661 34.8624L311.758 37.1068L311.764 37.0877L311.77 37.0687L304.661 34.8624ZM306.792 31.7751L310.849 38.0162L310.885 37.9926L310.921 37.9686L306.792 31.7751ZM312.599 37.8026L305.409 35.8767L305.393 35.9369L305.378 35.9973L312.599 37.8026ZM310.688 48.3876L303.275 47.7136L317.638 51.0542L310.688 48.3876ZM316.128 38.0967L310.199 33.5955L316.128 38.0967ZM322.008 32.4367L318.298 25.9838L318.262 26.0042L318.227 26.025L322.008 32.4367ZM330.903 31.9956L325.482 37.0972L325.637 37.2615L325.801 37.4161L330.903 31.9956ZM331.344 42.7276L338.689 43.9318L338.696 43.8918L338.702 43.8517L331.344 42.7276ZM330.168 51.2543L337.566 52.0763L337.566 52.0689L337.567 52.0615L330.168 51.2543ZM328.55 64.1914L323.13 59.0899L323.125 59.0951L323.12 59.1004L328.55 64.1914ZM321.347 64.1179L315.765 69.0428V69.0428L321.347 64.1179ZM321.273 50.6663L328.632 51.7861L328.633 51.7783L328.634 51.7704L321.273 50.6663ZM318.627 44.4917L312.546 40.1991L312.533 40.2173L312.52 40.2355L318.627 44.4917ZM315.099 50.9603L308.322 47.8801L308.299 47.9315L308.276 47.9833L315.099 50.9603ZM312.232 59.487L305.004 57.7096L304.994 57.7501L304.984 57.7907L312.232 59.487ZM310.321 64.1914L304.739 59.2666L304.729 59.2782L304.719 59.2898L310.321 64.1914ZM307.013 57.9239C307.459 57.9239 308.269 58.0693 309.055 58.6511C309.775 59.1845 309.977 59.7178 309.955 59.6628L296.132 65.1918C296.895 67.097 298.15 69.1003 300.193 70.6138C302.302 72.1758 304.705 72.8111 307.013 72.8111V57.9239ZM310.013 59.8137C309.775 59.1788 309.385 57.18 309.385 53.0185H294.497C294.497 57.4817 294.842 61.7554 296.074 65.0409L310.013 59.8137ZM309.385 53.0185C309.385 47.364 310.188 42.0723 311.758 37.1068L297.564 32.618C295.508 39.1195 294.497 45.9318 294.497 53.0185H309.385ZM311.77 37.0687C311.808 36.9458 311.795 37.0433 311.65 37.2541C311.492 37.4822 311.229 37.7693 310.849 38.0162L302.736 25.5341C299.938 27.3528 298.364 30.0381 297.552 32.6561L311.77 37.0687ZM310.921 37.9686C310.59 38.1894 310.364 38.2421 310.377 38.2391C310.383 38.2377 310.439 38.2247 310.555 38.2124C310.67 38.2001 310.835 38.1896 311.056 38.1896V23.3024C308.421 23.3024 305.362 23.7829 302.664 25.5817L310.921 37.9686ZM311.056 38.1896C311.269 38.1896 311.22 38.2054 310.997 38.1656C310.876 38.144 310.654 38.0972 310.363 37.9982C310.076 37.9005 309.652 37.7276 309.169 37.4257L317.059 24.8014C314.748 23.3569 312.184 23.3024 311.056 23.3024V38.1896ZM309.169 37.4257C307.942 36.6592 307.134 35.5792 306.695 34.535C306.296 33.5891 306.258 32.8252 306.258 32.5102H321.146C321.146 30.5943 320.56 26.9896 317.059 24.8014L309.169 37.4257ZM306.258 32.5102C306.258 32.1983 306.289 32.0603 306.266 32.2194C306.249 32.3386 306.211 32.5586 306.139 32.9032C305.995 33.594 305.759 34.5724 305.409 35.8767L319.79 39.7286C320.175 38.2887 320.49 37.0128 320.714 35.9395C320.903 35.0319 321.146 33.7371 321.146 32.5102H306.258ZM305.378 35.9973C304.869 38.0356 304.448 39.8706 304.124 41.4883L318.722 44.4079C318.987 43.0853 319.35 41.4901 319.821 39.608L305.378 35.9973ZM304.124 41.4883C303.761 43.3042 303.486 45.3985 303.275 47.7136L318.101 49.0615C318.283 47.0643 318.498 45.5323 318.722 44.4079L304.124 41.4883ZM317.638 51.0542C319.087 47.2785 320.594 44.5242 322.056 42.5979L310.199 33.5955C307.644 36.9616 305.524 41.0679 303.739 45.7209L317.638 51.0542ZM322.056 42.5979C323.744 40.375 325.019 39.303 325.79 38.8483L318.227 26.025C315.176 27.8246 312.53 30.5259 310.199 33.5955L322.056 42.5979ZM325.719 38.8896C326.977 38.166 327.477 38.1896 327.374 38.1896V23.3024C324.038 23.3024 320.96 24.4532 318.298 25.9838L325.719 38.8896ZM327.374 38.1896C327.52 38.1896 327.332 38.2113 326.947 38.075C326.522 37.9242 325.974 37.6199 325.482 37.0972L336.323 26.894C333.672 24.0771 330.209 23.3024 327.374 23.3024V38.1896ZM325.801 37.4161C325.278 36.9241 324.974 36.3764 324.823 35.9508C324.687 35.5658 324.709 35.3783 324.709 35.5239H339.596C339.596 32.6891 338.821 29.2264 336.004 26.5752L325.801 37.4161ZM324.709 35.5239C324.709 36.1485 324.534 38.0094 323.985 41.6034L338.702 43.8517C339.231 40.3891 339.596 37.4476 339.596 35.5239H324.709ZM323.998 41.5234C323.489 44.6294 323.078 47.6047 322.768 50.4471L337.567 52.0615C337.845 49.5134 338.218 46.8042 338.689 43.9318L323.998 41.5234ZM322.769 50.4323C322.439 53.4056 322.283 56.6511 322.283 60.1486H337.17C337.17 57.0794 337.308 54.3954 337.566 52.0763L322.769 50.4323ZM322.283 60.1486C322.283 60.5908 322.233 60.6576 322.285 60.4767C322.344 60.2729 322.553 59.7029 323.13 59.0899L333.971 69.293C336.662 66.4333 337.17 62.7799 337.17 60.1486H322.283ZM323.12 59.1004C323.775 58.4019 324.455 58.0983 324.812 57.984C325.13 57.882 325.203 57.9239 324.875 57.9239V72.8111C327.455 72.8111 331.19 72.2589 333.981 69.2824L323.12 59.1004ZM324.875 57.9239C324.676 57.9239 324.858 57.8945 325.265 58.0386C325.721 58.2 326.359 58.5483 326.928 59.1931L315.765 69.0428C318.459 72.0954 322.115 72.8111 324.875 72.8111V57.9239ZM326.928 59.1931C327.395 59.7216 327.59 60.2148 327.661 60.4556C327.725 60.6721 327.688 60.6789 327.688 60.3691H312.801C312.801 62.9694 313.354 66.31 315.765 69.0428L326.928 59.1931ZM327.688 60.3691C327.688 59.0241 327.948 56.2797 328.632 51.7861L313.914 49.5464C313.226 54.0696 312.801 57.7938 312.801 60.3691H327.688ZM328.634 51.7704C329.196 48.0245 329.599 44.9193 329.599 43.1686H314.712C314.712 43.1457 314.711 43.2756 314.682 43.6339C314.654 43.9676 314.609 44.4122 314.542 44.9819C314.408 46.1221 314.2 47.6411 313.912 49.5621L328.634 51.7704ZM329.599 43.1686C329.599 42.1547 329.467 40.0761 328.087 38.0695C326.362 35.56 323.688 34.5489 321.347 34.5489V49.4361C320.579 49.4361 319.547 49.2941 318.453 48.7639C317.324 48.2166 316.438 47.4038 315.819 46.5035C314.709 44.8889 314.712 43.3984 314.712 43.1686H329.599ZM321.347 34.5489C318.06 34.5489 315.862 36.4845 315.152 37.1364C314.14 38.0671 313.268 39.1758 312.546 40.1991L324.708 48.7843C325.162 48.1414 325.332 48.0006 325.226 48.0982C325.165 48.1536 324.872 48.4192 324.354 48.6992C323.849 48.9714 322.799 49.4361 321.347 49.4361V34.5489ZM312.52 40.2355C311.041 42.3582 309.651 44.9561 308.322 47.8801L321.875 54.0405C322.996 51.574 323.959 49.8595 324.734 48.7479L312.52 40.2355ZM308.276 47.9833C306.923 51.0837 305.835 54.3288 305.004 57.7096L319.46 61.2645C320.099 58.6668 320.922 56.2273 321.921 53.9373L308.276 47.9833ZM304.984 57.7907C304.771 58.7013 304.582 59.2732 304.454 59.5889C304.392 59.7396 304.367 59.7779 304.391 59.7357C304.412 59.6982 304.519 59.5167 304.739 59.2666L315.902 69.1163C317.953 66.7921 318.909 63.6204 319.48 61.1833L304.984 57.7907ZM304.719 59.2898C305.314 58.6102 305.988 58.237 306.486 58.06C306.933 57.9008 307.163 57.9239 307.013 57.9239V72.8111C309.675 72.8111 313.275 72.1194 315.923 69.0931L304.719 59.2898Z" fill="#1F1F1F" mask="url(#path-1-outside-1_2562_744)"/>
</svg>
